<svg xmlns="http://www.w3.org/2000/svg" width="612.254" height="417.216" viewBox="0 0 612.254 417.216">
    <defs>
        <style>
            .cls-1,.cls-3{fill:#c3ecfe}.cls-1,.cls-21{opacity:.35}.cls-11,.cls-18,.cls-2,.cls-20,.cls-29,.cls-33,.cls-36,.cls-5{fill:none}.cls-2{stroke:#c3ecfe}.cls-11,.cls-18,.cls-2,.cls-36,.cls-5{stroke-miterlimit:10}.cls-11,.cls-18,.cls-2,.cls-33,.cls-36,.cls-5{stroke-width:1.056px}.cls-4{fill:#599fd2}.cls-5{stroke:#a1dbff;stroke-dasharray:2.641}.cls-6{fill:#88d2ff}.cls-7{fill:#9bdfff}.cls-8{fill:#c0edff}.cls-15,.cls-17,.cls-32,.cls-9{fill:#0264fb}.cls-10{opacity:.5}.cls-11{stroke:#ccf3ff}.cls-12{fill:#ccf3ff}.cls-13{fill:#e9e8ee}.cls-14{fill:#0063fb}.cls-15,.cls-26{opacity:.45}.cls-16,.cls-34{fill:#fff}.cls-17{opacity:.25}.cls-18,.cls-20,.cls-34{stroke:#0264fb}.cls-19{opacity:.15}.cls-20,.cls-29,.cls-33,.cls-34{stroke-linecap:round;stroke-linejoin:round}.cls-20,.cls-34{stroke-width:2.113px}.cls-21{fill:#bdeeff}.cls-22{fill:#ffbe9d}.cls-23{fill:#f2a181}.cls-24{fill:#ffccb0}.cls-25{fill:#57c6f2}.cls-26{fill:#5ab5e2}.cls-27{fill:#eaeaea}.cls-28{fill:#e5f8ff}.cls-29{stroke:#a1d2f0;stroke-width:.528px}.cls-30{fill:#80cfff}.cls-31{fill:#a4e1ff}.cls-32{opacity:.19}.cls-33{stroke:#fff}.cls-35{fill:#c2ebff}.cls-36{stroke:#9bdfff}
        </style>
    </defs>
    <g id="그룹_1036" data-name="그룹 1036" transform="translate(-383.159 -39.463)">
        <path id="패스_1412" d="M957.18 314.806c-8.3-29.781 18.089-30.932 18.669-69.305.238-15.7-8.361-31.679-29.048-39.012-10.168-3.6-20.3-6.079-29.349-11.808-20.615-13.057-20.241-37.9-25.865-59.08-12.352-46.518-59.885-83.471-108-82.271-34.685.868-66.044 1.93-97.666 31.37-21.637 20.145-35.7 44.931-55.788 65.7-21.272 21.993-47.194 32.543-76.3 39.61-27.531 6.683-57.477 14.635-78.546 34.672-19.8 18.832-16.914 38.527-8.424 61.649 9.361 25.5-10.939 42.846-32.105 52.774-17.823 8.359-41.547 7.631-49.82 27.629-8.971 21.683 17.678 22.055 42.457 22.055s345.622-1.907 435.3.746c24.136.714 101.144 7.288 112.036-22.8 7.41-20.481-11.753-31.135-17.551-51.929z" class="cls-1" data-name="패스 1412" transform="translate(0 10.917)"/>
        <g id="그룹_968" data-name="그룹 968" transform="translate(890.868 300.244)">
            <path id="패스_1413" d="M760.808 194.3c-17.921 41.706-52.447 75.745-93.836 94.2" class="cls-2" data-name="패스 1413" transform="translate(-666.972 -178.096)"/>
            <g id="그룹_967" data-name="그룹 967" transform="translate(12.329)">
                <path id="패스_1414" d="M716.486 212.539a34.341 34.341 0 0 0 11.824-20.776c.313-1.971.378-4.216-.946-5.708a2.236 2.236 0 0 0-1.392-.8 2.861 2.861 0 0 0-2.24 1.218c-3.113 3.5-4.193 8.336-4.728 12.989s-1.553 8.064-2.519 13.082" class="cls-3" data-name="패스 1414" transform="translate(-640.24 -185.241)"/>
                <path id="패스_1415" d="M713.685 221.183a34.346 34.346 0 0 0 2.615-23.762c-.494-1.934-1.326-4.02-3.134-4.864a2.24 2.24 0 0 0-1.6-.188 2.867 2.867 0 0 0-1.566 2.008c-1.47 4.445-.544 9.317.81 13.8s1.773 8.018 2.877 13.007" class="cls-3" data-name="패스 1415" transform="translate(-645.949 -179.678)"/>
                <path id="패스_1416" d="M705.561 230.951a34.352 34.352 0 0 0 5.5-23.264c-.254-1.98-.823-4.152-2.515-5.211a2.237 2.237 0 0 0-1.562-.381 2.864 2.864 0 0 0-1.807 1.8c-2 4.234-1.678 9.181-.882 13.8s.78 8.175 1.266 13.263" class="cls-3" data-name="패스 1416" transform="translate(-650.346 -171.967)"/>
                <path id="패스_1417" d="M697.516 239.512a34.352 34.352 0 0 0 5.5-23.264c-.252-1.98-.823-4.152-2.515-5.211a2.235 2.235 0 0 0-1.562-.381 2.861 2.861 0 0 0-1.8 1.8c-2 4.234-1.678 9.181-.882 13.8s.78 8.175 1.265 13.263" class="cls-3" data-name="패스 1417" transform="translate(-656.692 -165.213)"/>
                <path id="패스_1418" d="M684.635 249.25a34.354 34.354 0 0 0 7.88-22.57c-.047-1.995-.39-4.215-1.962-5.444a2.229 2.229 0 0 0-1.513-.54 2.867 2.867 0 0 0-1.984 1.6c-2.429 4-2.619 8.955-2.306 13.628s-.07 8.213-.114 13.324" class="cls-3" data-name="패스 1418" transform="translate(-665.367 -157.276)"/>
                <path id="패스_1419" d="M675.194 255.226a36.656 36.656 0 0 0 9.145-21.436c.172-1.986.115-4.231-1.1-5.642a1.838 1.838 0 0 0-1.238-.721c-.762-.038-1.4.653-1.869 1.347-2.506 3.674-3.193 8.569-3.42 13.243s-.934 8.143-1.515 13.209" class="cls-3" data-name="패스 1419" transform="translate(-672.815 -151.963)"/>
                <path id="패스_1420" d="M709.346 217.139a37.205 37.205 0 0 0 24.6-4.719c1.819-1.07 3.7-2.519 4.091-4.537a2.2 2.2 0 0 0-.222-1.612 2.854 2.854 0 0 0-2.426-.918c-4.853-.072-9.519 2.318-13.683 5.007s-7.617 4.179-12.356 6.778" class="cls-3" data-name="패스 1420" transform="translate(-645.873 -169.376)"/>
                <path id="패스_1421" d="M703.69 221.862a37.205 37.205 0 0 0 25.01 1.288c2.023-.6 4.2-1.56 5.057-3.427a2.189 2.189 0 0 0 .168-1.619 2.849 2.849 0 0 0-2.134-1.47c-4.7-1.229-9.8-.02-14.483 1.6s-8.4 2.238-13.617 3.631" class="cls-3" data-name="패스 1421" transform="translate(-650.335 -160.874)"/>
                <path id="패스_1422" d="M695.241 228.513a37.218 37.218 0 0 0 24.245 6.266c2.1-.19 4.427-.691 5.64-2.349a2.2 2.2 0 0 0 .49-1.551c-.124-.877-.977-1.463-1.8-1.869-4.356-2.143-9.6-1.978-14.51-1.333s-8.672.515-14.068.835" class="cls-3" data-name="패스 1422" transform="translate(-657 -152.101)"/>
                <path id="패스_1423" d="M683.421 240.677a37.209 37.209 0 0 0 25.032.733c2.009-.651 4.165-1.655 4.979-3.542a2.192 2.192 0 0 0 .132-1.621 2.844 2.844 0 0 0-2.166-1.422c-4.723-1.125-9.8.2-14.443 1.918s-8.343 2.426-13.533 3.934" class="cls-3" data-name="패스 1423" transform="translate(-666.325 -146.455)"/>
                <path id="패스_1424" d="M673.864 243.618a37.2 37.2 0 0 0 22.021 11.923c2.088.324 4.463.4 6.039-.919a2.19 2.19 0 0 0 .85-1.388 2.853 2.853 0 0 0-1.3-2.245c-3.71-3.131-8.835-4.234-13.762-4.791s-8.54-1.59-13.853-2.58" class="cls-3" data-name="패스 1424" transform="translate(-673.864 -139.189)"/>
            </g>
        </g>
        <g id="그룹_972" data-name="그룹 972" transform="translate(880.938 225.593)">
            <g id="그룹_969" data-name="그룹 969" transform="translate(1.859)">
                <path id="패스_1425" d="M663.036 146.626a.441.441 0 0 1-.417-.41l-.157-2.231a.442.442 0 0 1 .882-.063l.157 2.231a.442.442 0 0 1-.41.472.285.285 0 0 1-.055.001z" class="cls-4" data-name="패스 1425" transform="translate(-662.46 -143.511)"/>
            </g>
            <g id="그룹_971" data-name="그룹 971" transform="translate(0 9.434)">
                <g id="그룹_970" data-name="그룹 970">
                    <path id="패스_1426" d="M673.875 243.832l-5.895.414-6.559-95.046 2.947-.207 2.947-.207z" class="cls-3" data-name="패스 1426" transform="translate(-661.421 -148.785)"/>
                </g>
            </g>
            <path id="패스_1427" d="M664.413 144.488l-1.192.084-1.8 8.016 5.895-.414z" class="cls-3" data-name="패스 1427" transform="translate(-661.421 -142.74)"/>
        </g>
        <g id="그룹_974" data-name="그룹 974" transform="translate(545.324 234.255)">
            <path id="패스_1428" d="M482.4 157.711C492.88 215 532.819 266.075 585.888 290.062" class="cls-2" data-name="패스 1428" transform="translate(-467.037 -140.971)"/>
            <g id="그룹_973" data-name="그룹 973">
                <path id="패스_1429" d="M486.954 177.082a34.333 34.333 0 0 1-6.894-22.891c.134-1.991.571-4.193 2.195-5.352a2.242 2.242 0 0 1 1.537-.474 2.866 2.866 0 0 1 1.912 1.687c2.254 4.1 2.229 9.061 1.712 13.715s-.284 8.207-.462 13.315" class="cls-3" data-name="패스 1429" transform="translate(-468.939 -148.353)"/>
                <path id="패스_1430" d="M487.183 185.5a34.333 34.333 0 0 1 2.75-23.746c.912-1.776 2.188-3.624 4.138-4.045a2.251 2.251 0 0 1 1.6.174 2.868 2.868 0 0 1 1.086 2.308c.442 4.662-1.547 9.2-3.868 13.27s-3.517 7.422-5.7 12.039" class="cls-3" data-name="패스 1430" transform="translate(-464.041 -141.025)"/>
                <path id="패스_1431" d="M492.377 196.907A34.349 34.349 0 0 1 492.2 173c.687-1.873 1.728-3.862 3.614-4.519a2.233 2.233 0 0 1 1.606-.023 2.864 2.864 0 0 1 1.359 2.157c1.009 4.572-.41 9.322-2.215 13.644s-2.583 7.8-4.191 12.646" class="cls-3" data-name="패스 1431" transform="translate(-460.926 -132.601)"/>
                <path id="패스_1432" d="M498.312 207.046a34.339 34.339 0 0 1-.175-23.9c.689-1.873 1.728-3.862 3.614-4.519a2.237 2.237 0 0 1 1.608-.023 2.869 2.869 0 0 1 1.36 2.157c1.007 4.572-.411 9.322-2.216 13.644s-2.583 7.8-4.19 12.646" class="cls-3" data-name="패스 1432" transform="translate(-456.245 -124.602)"/>
                <path id="패스_1433" d="M508.488 219.5a34.351 34.351 0 0 1-2.649-23.758c.49-1.934 1.318-4.021 3.127-4.869a2.229 2.229 0 0 1 1.6-.188 2.862 2.862 0 0 1 1.576 2c1.476 4.444.556 9.315-.791 13.8s-1.762 8.021-2.859 13.012" class="cls-3" data-name="패스 1433" transform="translate(-449.35 -115.02)"/>
                <path id="패스_1434" d="M516.649 227.645a36.664 36.664 0 0 1-4.136-22.935c.275-1.975.832-4.15 2.333-5.256a1.856 1.856 0 0 1 1.369-.428c.751.134 1.215.95 1.521 1.732 1.624 4.141 1.2 9.064.383 13.672s-.905 8.147-1.469 13.215" class="cls-3" data-name="패스 1434" transform="translate(-443.565 -108.392)"/>
                <path id="패스_1435" d="M499.713 184.843a37.2 37.2 0 0 1-22.923-10.084c-1.535-1.449-3.052-3.281-2.977-5.334a2.185 2.185 0 0 1 .576-1.521 2.851 2.851 0 0 1 2.567-.356c4.749 1.013 8.762 4.383 12.223 7.934s6.494 5.771 10.533 9.361" class="cls-3" data-name="패스 1435" transform="translate(-473.811 -133.316)"/>
                <path id="패스_1436" d="M504.9 190.639a37.2 37.2 0 0 1-24.667-4.32c-1.837-1.041-3.748-2.458-4.166-4.47a2.2 2.2 0 0 1 .2-1.614 2.853 2.853 0 0 1 2.41-.959c4.851-.15 9.554 2.166 13.762 4.787s7.683 4.054 12.465 6.576" class="cls-3" data-name="패스 1436" transform="translate(-472.082 -123.964)"/>
                <path id="패스_1437" d="M511.807 198.692a37.2 37.2 0 0 1-25.034.7c-2.007-.653-4.163-1.658-4.975-3.546a2.2 2.2 0 0 1-.131-1.623 2.854 2.854 0 0 1 2.17-1.419c4.723-1.12 9.794.209 14.442 1.936s8.34 2.435 13.528 3.95" class="cls-3" data-name="패스 1437" transform="translate(-467.694 -113.611)"/>
                <path id="패스_1438" d="M520.421 213.522a37.214 37.214 0 0 1-24.565-4.868c-1.812-1.082-3.691-2.54-4.064-4.562a2.2 2.2 0 0 1 .233-1.61 2.852 2.852 0 0 1 2.429-.9c4.855-.043 9.5 2.376 13.653 5.091s7.592 4.224 12.315 6.851" class="cls-3" data-name="패스 1438" transform="translate(-459.667 -106.364)"/>
                <path id="패스_1439" d="M529.2 216.347a37.214 37.214 0 0 1-24.127 6.712c-2.107-.15-4.44-.608-5.683-2.243a2.2 2.2 0 0 1-.517-1.542c.106-.878.948-1.481 1.762-1.9 4.317-2.224 9.558-2.156 14.483-1.6s8.681.354 14.082.576" class="cls-3" data-name="패스 1439" transform="translate(-454.051 -95.426)"/>
            </g>
        </g>
        <g id="그룹_976" data-name="그룹 976" transform="translate(440.865 310.661)">
            <path id="패스_1440" d="M424.65 202.5c58.178-2.653 116.922 24.792 152.216 71.115" class="cls-2" data-name="패스 1440" transform="translate(-408.134 -182.179)"/>
            <g id="그룹_975" data-name="그룹 975">
                <path id="패스_1441" d="M444.213 203.694a34.34 34.34 0 0 0-23.853-1.576c-1.911.576-3.959 1.5-4.724 3.342a2.234 2.234 0 0 0-.116 1.6 2.863 2.863 0 0 0 2.071 1.485c4.506 1.276 9.331.136 13.751-1.413s7.934-2.122 12.871-3.44" class="cls-3" data-name="패스 1441" transform="translate(-415.417 -183.473)"/>
                <path id="패스_1442" d="M452 203.185a34.348 34.348 0 0 0-22.522 8.014c-1.526 1.286-3.039 2.945-3.011 4.941a2.234 2.234 0 0 0 .528 1.519 2.868 2.868 0 0 0 2.492.54c4.642-.617 8.619-3.576 12.063-6.749s6.442-5.095 10.451-8.265" class="cls-3" data-name="패스 1442" transform="translate(-406.703 -181.507)"/>
                <path id="패스_1443" d="M464.463 205.363a34.351 34.351 0 0 0-23.332 5.2c-1.671 1.091-3.377 2.553-3.592 4.537a2.242 2.242 0 0 0 .338 1.572 2.87 2.87 0 0 0 2.406.841c4.683-.045 8.993-2.5 12.8-5.225s7.018-4.268 11.383-6.923" class="cls-3" data-name="패스 1443" transform="translate(-397.981 -180.04)"/>
                <path id="패스_1444" d="M475.676 208.867a34.342 34.342 0 0 0-23.332 5.2c-1.671 1.091-3.377 2.551-3.592 4.535a2.242 2.242 0 0 0 .338 1.572 2.863 2.863 0 0 0 2.406.841c4.683-.045 8.993-2.5 12.8-5.225s7.018-4.268 11.383-6.923" class="cls-3" data-name="패스 1444" transform="translate(-389.135 -177.276)"/>
                <path id="패스_1445" d="M490.226 215.692a34.335 34.335 0 0 0-23.746 2.755c-1.775.912-3.622 2.188-4.043 4.139a2.236 2.236 0 0 0 .173 1.6 2.868 2.868 0 0 0 2.308 1.086c4.662.44 9.2-1.549 13.268-3.871s7.422-3.519 12.039-5.707" class="cls-3" data-name="패스 1445" transform="translate(-378.378 -172.414)"/>
                <path id="패스_1446" d="M500.123 221.612a36.654 36.654 0 0 0-23.277 1.122c-1.862.712-3.857 1.744-4.6 3.454a1.859 1.859 0 0 0-.109 1.429c.3.7 1.2.97 2.029 1.093 4.4.653 9.1-.862 13.41-2.7s7.735-2.714 12.545-4.4" class="cls-3" data-name="패스 1446" transform="translate(-370.749 -168.064)"/>
                <path id="패스_1447" d="M454.812 213.467a37.213 37.213 0 0 0-14.975-20.073c-1.758-1.17-3.884-2.236-5.868-1.7a2.2 2.2 0 0 0-1.354.9 2.849 2.849 0 0 0 .232 2.583c2.052 4.4 6.238 7.553 10.474 10.127s7.082 5.032 11.49 8.163" class="cls-3" data-name="패스 1447" transform="translate(-402.029 -190.681)"/>
                <path id="패스_1448" d="M461.576 217.185a37.211 37.211 0 0 0-9.751-23.066c-1.428-1.556-3.236-3.1-5.292-3.054a2.186 2.186 0 0 0-1.529.553 2.855 2.855 0 0 0-.392 2.564c.943 4.762 4.256 8.825 7.755 12.334s5.676 6.578 9.209 10.669" class="cls-3" data-name="패스 1448" transform="translate(-392.479 -191.064)"/>
                <path id="패스_1449" d="M470.788 222.144a37.208 37.208 0 0 0-4.939-24.551c-1.088-1.81-2.551-3.683-4.574-4.052a2.194 2.194 0 0 0-1.608.238 2.85 2.85 0 0 0-.9 2.431c-.029 4.855 2.406 9.5 5.13 13.638s4.247 7.579 6.889 12.3" class="cls-3" data-name="패스 1449" transform="translate(-381.218 -189.151)"/>
                <path id="패스_1450" d="M487.369 227.17a37.2 37.2 0 0 0-10.261-22.844c-1.461-1.522-3.3-3.025-5.358-2.936a2.2 2.2 0 0 0-1.517.589 2.847 2.847 0 0 0-.335 2.571c1.048 4.741 4.451 8.728 8.027 12.161s5.823 6.449 9.444 10.46" class="cls-3" data-name="패스 1450" transform="translate(-372.55 -182.921)"/>
                <path id="패스_1451" d="M491.5 235.274a37.209 37.209 0 0 0 1.122-25.018c-.619-2.02-1.589-4.19-3.463-5.034a2.193 2.193 0 0 0-1.619-.157 2.851 2.851 0 0 0-1.456 2.145c-1.2 4.7.047 9.8 1.694 14.472s2.3 8.379 3.723 13.592" class="cls-3" data-name="패스 1451" transform="translate(-360.042 -180.093)"/>
            </g>
        </g>
        <path id="패스_1452" d="M601.836 221.011a41.173 41.173 0 0 0-31.81-10.74c-7.775.785-16.252 4.939-17.964 12.563-.814 3.631-.528 8.449-3.966 9.876-3.363 1.4-6.614-2.07-10.066-3.227-5.748-1.928-12.307 4.644-10.368 10.388.882 2.612 3.091 4.887 2.909 7.639-.25 3.746-4.882 5.7-8.59 5.118s-6.984-2.748-10.622-3.674-8.351 0-9.63 3.533c-1.145 3.165.832 7.417-1.653 9.685a6.791 6.791 0 0 1-4.041 1.309c-31.5 2.991-66.2 8.642-62.675 14.24.964 1.529 3.428 1.043 5.234 1.014 67.056-1.05 127.968-2.05 195 .007" class="cls-3" data-name="패스 1452" transform="translate(39.406 134.593)"/>
        <path id="패스_1453" d="M584.558 205.462c-4.692 13.341-18.624 28.272-34.532 28.272-18.062 0-22.47-14.642-27.737-19.273-12.953-11.39-21.053-14.041-37.538-16.853-10.728-1.83-22.2-16.883-19.417-31.824 5.068-27.247 54.2-40.237 66.647-60.173 10.136-16.243 9.6-25.948 27.338-37.6" class="cls-5" data-name="패스 1453" transform="translate(64.494 22.517)"/>
        <g id="그룹_982" data-name="그룹 982" transform="translate(821.264 200.819)">
            <path id="패스_1454" d="M656.034 157.307l19.879 77.95-3.781.964-24.595-76.747" class="cls-6" data-name="패스 1454" transform="translate(-612.7 -107.853)"/>
            <g id="그룹_977" data-name="그룹 977" transform="translate(0 6.252)">
                <path id="패스_1455" d="M653 178.137c-10.152 2.589-20.955-5.283-24.084-17.549s2.587-24.35 12.739-26.939 20.953 5.284 24.082 17.549-2.585 24.351-12.737 26.939zm-9.6-37.667c-6.39 1.63-9.824 9.875-7.656 18.379s9.132 14.1 15.522 12.469 9.826-9.875 7.656-18.379-9.136-14.098-15.522-12.469z" class="cls-7" data-name="패스 1455" transform="translate(-628.063 -133.157)"/>
            </g>
            <g id="그룹_978" data-name="그룹 978" transform="translate(23.85 25.604)">
                <path id="패스_1456" d="M652.654 146.221c.331 1.293 6.045 23.7 6.045 23.7a2.227 2.227 0 0 1-1.608 2.71 2.228 2.228 0 0 1-2.708-1.608l-.683-2.678s-3.173-6.769-11.948-3.978c0 0 10.465-1.308 10.821-1.283s-.248-18.156.081-16.863z" class="cls-8" data-name="패스 1456" transform="translate(-641.114 -142.255)"/>
                <path id="패스_1457" d="M658.241 177.762a5.752 5.752 0 0 1-6.987-4.148 9.283 9.283 0 0 0-1.088-2.9c-1.138-1.614-3.456-2.22-7.7-1.138l-1.073-5.993c2.229-.714 3.832-1.789 5.626-1.664.961-.116 1.759-.213 2.427-.292a572.069 572.069 0 0 0-.072-6.111c-.027-1.971 2.531-4.188 2.524-5.6-.009-2.54-2.615-5.107.538-5.529l3.1-.411 6.848 26.8a5.754 5.754 0 0 1-4.143 6.986z" class="cls-7" data-name="패스 1457" transform="translate(-641.395 -143.975)"/>
            </g>
            <g id="그룹_981" data-name="그룹 981" transform="translate(45.508)">
                <path id="패스_1458" d="M653.923 156.915l.059 80.445h3.9l4.809-80.449" class="cls-6" data-name="패스 1458" transform="translate(-653.17 -108.167)"/>
                <g id="그룹_979" data-name="그룹 979">
                    <path id="패스_1459" d="M653.5 152.631c-.009-12.658 8.506-22.962 18.982-22.969s19.009 10.284 19.018 22.938-8.506 22.962-18.982 22.969-19.007-10.28-19.018-22.938zm7.039-.005c.005 8.778 5.377 15.914 11.971 15.909s11.955-7.148 11.948-15.925-5.375-15.91-11.969-15.91-11.955 7.15-11.948 15.926z" class="cls-7" data-name="패스 1459" transform="translate(-653.502 -129.662)"/>
                </g>
                <g id="그룹_980" data-name="그룹 980" transform="translate(.014 23.919)">
                    <path id="패스_1460" d="M655.471 145.075l.018 24.461a2.227 2.227 0 0 0 2.229 2.225 2.226 2.226 0 0 0 2.225-2.229v-2.764s1.4-7.345 10.59-6.816c0 0-10.463 1.327-10.8 1.44s-4.264-17.652-4.262-16.317z" class="cls-8" data-name="패스 1460" transform="translate(-651.963 -141.479)"/>
                    <path id="패스_1461" d="M659.267 176.834a5.75 5.75 0 0 0 5.742-5.749 9.265 9.265 0 0 1 .336-3.075c.7-1.846 2.8-3.007 7.175-3.011l-.444-6.071c-2.338-.14-4.157-.784-5.864-.218-.961.125-1.757.231-2.424.32a542.788 542.788 0 0 1-1.445-5.937c-.461-1.918-3.49-3.431-3.835-4.8-.621-2.463 1.268-5.6-1.891-5.224l-3.107.368.007 27.66a5.751 5.751 0 0 0 5.75 5.737z" class="cls-7" data-name="패스 1461" transform="translate(-653.51 -143.033)"/>
                </g>
            </g>
        </g>
        <path id="패스_1462" d="M596.325 106.55c3.347-15.71 20-34.708 46.917-28.511 17.316 3.986 21.919 20.29 31.214 30.769 6.885 7.766 16.674 14.143 19.884 25.116 7.4 25.311-2.676 52.72-20.687 61.332-11.039 5.277-40.146 2.134-51.15-3.236" class="cls-5" data-name="패스 1462" transform="translate(168.164 29.483)"/>
        <g id="그룹_987" data-name="그룹 987" transform="translate(891.274 225.647)">
            <g id="그룹_983" data-name="그룹 983">
                <path id="사각형_1589" d="M1.169 0h7.943a1.169 1.169 0 0 1 1.169 1.169v88.565H0V1.169A1.169 1.169 0 0 1 1.169 0z" class="cls-6" data-name="사각형 1589" transform="rotate(10.26 7.988 88.872)"/>
            </g>
            <g id="그룹_984" data-name="그룹 984" transform="translate(14.204)">
                <path id="사각형_1590" d="M1.169 0h7.943a1.169 1.169 0 0 1 1.169 1.169v8.64H0v-8.64A1.169 1.169 0 0 1 1.169 0z" class="cls-9" data-name="사각형 1590" transform="rotate(10.237 .872 9.73)"/>
            </g>
            <g id="그룹_986" class="cls-10" data-name="그룹 986" transform="translate(13.661 9.661)">
                <g id="그룹_985" data-name="그룹 985">
                    <path id="사각형_1591" d="M0 0h3.079v10.282H0z" class="cls-4" data-name="사각형 1591" transform="rotate(-79.762 1.813 1.515)"/>
                </g>
            </g>
        </g>
        <g id="그룹_989" data-name="그룹 989" transform="translate(892.804 239.898)">
            <path id="사각형_1592" d="M0 0h17.747v96.016H0z" class="cls-3" data-name="사각형 1592" transform="rotate(21.512 17.604 92.67)"/>
            <g id="그룹_988" data-name="그룹 988" transform="translate(12.214 7.268)">
                <path id="선_81" d="M0 0l5.442 2.145" class="cls-11" data-name="선 81" transform="translate(32.919)"/>
                <path id="선_82" d="M0 0l5.442 2.145" class="cls-11" data-name="선 82" transform="translate(31.09 4.64)"/>
                <path id="선_83" d="M0 0l5.442 2.145" class="cls-11" data-name="선 83" transform="translate(29.261 9.28)"/>
                <path id="선_84" d="M0 0l8.104 3.194" class="cls-11" data-name="선 84" transform="translate(24.77 12.871)"/>
                <path id="선_85" d="M0 0l5.442 2.145" class="cls-11" data-name="선 85" transform="translate(25.603 18.56)"/>
                <path id="선_86" d="M0 0l5.442 2.145" class="cls-11" data-name="선 86" transform="translate(23.775 23.2)"/>
                <path id="선_87" d="M0 0l5.442 2.145" class="cls-11" data-name="선 87" transform="translate(21.946 27.839)"/>
                <path id="선_88" d="M0 0l8.104 3.194" class="cls-11" data-name="선 88" transform="translate(17.455 31.43)"/>
                <path id="선_89" d="M0 0l5.442 2.145" class="cls-11" data-name="선 89" transform="translate(18.288 37.119)"/>
                <path id="선_90" d="M0 0l5.442 2.145" class="cls-11" data-name="선 90" transform="translate(16.459 41.759)"/>
                <path id="선_91" d="M0 0l5.442 2.145" class="cls-11" data-name="선 91" transform="translate(14.631 46.399)"/>
                <path id="선_92" d="M0 0l8.104 3.194" class="cls-11" data-name="선 92" transform="translate(10.14 49.99)"/>
                <path id="선_93" d="M0 0l5.442 2.145" class="cls-11" data-name="선 93" transform="translate(10.973 55.679)"/>
                <path id="선_94" d="M0 0l5.442 2.145" class="cls-11" data-name="선 94" transform="translate(9.144 60.319)"/>
                <path id="선_95" d="M0 0l5.442 2.145" class="cls-11" data-name="선 95" transform="translate(7.316 64.959)"/>
                <path id="선_96" d="M0 0l8.104 3.194" class="cls-11" data-name="선 96" transform="translate(2.824 68.549)"/>
                <path id="선_97" d="M0 0l5.442 2.145" class="cls-11" data-name="선 97" transform="translate(3.658 74.238)"/>
                <path id="선_98" d="M0 0l5.442 2.145" class="cls-11" data-name="선 98" transform="translate(1.829 78.878)"/>
                <path id="선_99" d="M0 0l5.442 2.145" class="cls-11" data-name="선 99" transform="translate(0 83.518)"/>
            </g>
        </g>
        <path id="패스_1463" d="M726.443 306.9h-82.33l-13.83-124.548a2.674 2.674 0 0 1 2.658-2.968h104.674a2.674 2.674 0 0 1 2.656 2.968z" class="cls-7" data-name="패스 1463" transform="translate(194.94 110.383)"/>
        <path id="패스_1464" d="M640.794 285.022q74.385 1.012 148.767 2.027c1.665.021 6.911-1.6-2.129-7.429-7.656-4.937-31.853-.5-31.853-.5s5.633-2.259 5.606-5.173-2.234-5.474-4.887-6.683a18.127 18.127 0 0 0-8.581-1.131A54.724 54.724 0 0 0 730.433 270a5.012 5.012 0 1 0-5.814-8.138c3.715-5.034 9.461-27.34-8.2-37.169-22.134-12.322-38.944-2.182-42.531 5.234-1.819-7.279-10.172-12.791-15.671-14.157-12.547-3.114-20.719-2.191-32.431 3.279-4.143 1.934-9.69 8.542-12.445 12.193-4.313 5.717-4.986 13.32-5.224 20.477q-.266 8.058-.072 16.123" class="cls-12" data-name="패스 1464" transform="translate(177.349 137.69)"/>
        <g id="그룹_1003" data-name="그룹 1003" transform="translate(624.006 105.933)">
            <path id="패스_1465" d="M740.907 260.186c0 2.571-49.946 4.655-111.557 4.655s-111.557-2.084-111.557-4.655 49.946-4.655 111.557-4.655 111.557 2.084 111.557 4.655z" class="cls-13" data-name="패스 1465" transform="translate(-517.794 64.52)"/>
            <path id="패스_1466" d="M586.281 76.62a11.2 11.2 0 0 0-11.2 11.195v14.349h22.391V87.815a11.2 11.2 0 0 0-11.191-11.195zm0 17.621a6.281 6.281 0 1 1 6.281-6.281 6.281 6.281 0 0 1-6.281 6.281z" class="cls-14" data-name="패스 1466" transform="translate(-472.599 -76.62)"/>
            <path id="패스_1467" d="M592.561 87.767a6.143 6.143 0 0 0-7.225-6.186 4.6 4.6 0 0 1 2.549-.61 6.281 6.281 0 0 1 6.281 6.281c0 3.145-1.6 4.85-4.029 5.472a6.871 6.871 0 0 0 2.424-4.957zM578.5 100.538V86.191a10.926 10.926 0 0 1 4.707-9.327 11.194 11.194 0 0 0-8.127 10.758v14.349h22.391v-1.433z" class="cls-15" data-name="패스 1467" transform="translate(-472.599 -76.428)"/>
            <rect id="사각형_1593" width="211.018" height="298.358" class="cls-9" data-name="사각형 1593" rx="9.742" transform="translate(6.048 26.298)"/>
            <path id="사각형_1594" d="M0 0h186.557v274.954H0z" class="cls-3" data-name="사각형 1594" transform="translate(18.278 37.999)"/>
            <path id="사각형_1595" d="M0 0h172.21v258.154H0z" class="cls-16" data-name="사각형 1595" transform="translate(25.452 46.399)"/>
            <path id="사각형_1596" d="M7.023 0h121.7a7.023 7.023 0 0 1 7.023 7.023v12.069H0V7.023A7.023 7.023 0 0 1 7.023 0z" class="cls-14" data-name="사각형 1596" transform="translate(43.685 23.359)"/>
            <path id="패스_1468" d="M547.457 105.85v-8.121a10.931 10.931 0 0 1 3.379-7.907 10.968 10.968 0 0 0-8.622 10.712v8.122h135.744v-2.8z" class="cls-15" data-name="패스 1468" transform="translate(-498.529 -66.205)"/>
            <g id="그룹_1002" data-name="그룹 1002" transform="translate(29.039 50.998)">
                <g id="그룹_990" data-name="그룹 990">
                    <circle id="타원_72" cx="22.136" cy="22.136" r="22.136" class="cls-17" data-name="타원 72" transform="translate(8.757 8.757)"/>
                    <circle id="타원_73" cx="25.707" cy="25.707" r="25.707" class="cls-18" data-name="타원 73" transform="rotate(-76.817 31.57 25.03)"/>
                    <path id="패스_1469" d="M561.387 129.04a7.973 7.973 0 1 0-8.708 0 11.241 11.241 0 0 0-8.655 10.927v6.622a22.018 22.018 0 0 0 26.018 0v-6.622a11.242 11.242 0 0 0-8.655-10.927z" class="cls-16" data-name="패스 1469" transform="translate(-526.14 -97.815)"/>
                </g>
                <g id="그룹_992" data-name="그룹 992" transform="translate(63.344 10.494)">
                    <path id="패스_1470" d="M572.909 110.995l1.073 2.174 2.4.349-1.736 1.692.41 2.39-2.146-1.128-2.146 1.128.41-2.39-1.736-1.692 2.4-.349z" class="cls-9" data-name="패스 1470" transform="translate(-569.437 -110.995)"/>
                    <path id="패스_1471" d="M578.764 110.995l1.073 2.174 2.4.349-1.737 1.692.41 2.39-2.146-1.128-2.146 1.128.41-2.39-1.736-1.692 2.4-.349z" class="cls-9" data-name="패스 1471" transform="translate(-564.818 -110.995)"/>
                    <path id="패스_1472" d="M584.618 110.995l1.073 2.174 2.4.349-1.736 1.692.41 2.39-2.146-1.128-2.146 1.128.41-2.39-1.736-1.692 2.4-.349z" class="cls-9" data-name="패스 1472" transform="translate(-560.2 -110.995)"/>
                    <path id="패스_1473" d="M590.472 110.995l1.073 2.174 2.4.349-1.736 1.692.41 2.39-2.146-1.128-2.146 1.128.41-2.39-1.737-1.693 2.4-.349z" class="cls-9" data-name="패스 1473" transform="translate(-555.581 -110.995)"/>
                    <path id="패스_1474" d="M596.327 110.995l1.073 2.174 2.4.349-1.736 1.692.41 2.39-2.146-1.128-2.146 1.128.41-2.39-1.736-1.692 2.4-.349z" class="cls-9" data-name="패스 1474" transform="translate(-550.963 -110.995)"/>
                    <g id="그룹_991" class="cls-19" data-name="그룹 991" transform="translate(1.156 12.351)">
                        <path id="선_100" d="M0 0h22.282" class="cls-20" data-name="선 100"/>
                        <path id="선_101" d="M0 0h16.943" class="cls-20" data-name="선 101" transform="translate(72.286 8.918)"/>
                        <path id="선_102" d="M0 0h64.944" class="cls-20" data-name="선 102" transform="translate(0 8.918)"/>
                        <path id="선_103" d="M0 0h89.228" class="cls-20" data-name="선 103" transform="translate(0 17.837)"/>
                        <path id="선_104" d="M0 0h28.362" class="cls-20" data-name="선 104" transform="translate(60.867 26.755)"/>
                        <path id="선_105" d="M0 0h53.807" class="cls-20" data-name="선 105" transform="translate(0 26.755)"/>
                        <path id="선_106" d="M0 0h59.634" class="cls-20" data-name="선 106" transform="translate(29.594)"/>
                    </g>
                </g>
                <g id="그룹_993" data-name="그룹 993" transform="translate(1.925 64.465)">
                    <circle id="타원_74" cx="22.136" cy="22.136" r="22.136" class="cls-17" data-name="타원 74" transform="matrix(.922 -.386 .386 .922 0 17.098)"/>
                    <path id="패스_1475" d="M561.387 164a7.973 7.973 0 1 0-8.708 0 11.241 11.241 0 0 0-8.655 10.927v6.622a22.018 22.018 0 0 0 26.018 0v-6.622A11.242 11.242 0 0 0 561.387 164z" class="cls-16" data-name="패스 1475" transform="translate(-528.066 -134.701)"/>
                </g>
                <g id="그룹_995" data-name="그룹 995" transform="translate(63.344 73.034)">
                    <path id="패스_1476" d="M572.909 145.955l1.073 2.174 2.4.349-1.736 1.692.41 2.39-2.146-1.128-2.146 1.128.41-2.39-1.736-1.692 2.4-.349z" class="cls-9" data-name="패스 1476" transform="translate(-569.437 -145.955)"/>
                    <path id="패스_1477" d="M578.764 145.955l1.073 2.174 2.4.349-1.737 1.692.41 2.39-2.146-1.128-2.146 1.128.41-2.39-1.736-1.692 2.4-.349z" class="cls-9" data-name="패스 1477" transform="translate(-564.818 -145.955)"/>
                    <path id="패스_1478" d="M584.618 145.955l1.073 2.174 2.4.349-1.736 1.692.41 2.39-2.146-1.128-2.146 1.128.41-2.39-1.736-1.692 2.4-.349z" class="cls-9" data-name="패스 1478" transform="translate(-560.2 -145.955)"/>
                    <path id="패스_1479" d="M590.472 145.955l1.073 2.174 2.4.349-1.736 1.692.41 2.39-2.146-1.128-2.146 1.128.41-2.39-1.737-1.693 2.4-.349z" class="cls-17" data-name="패스 1479" transform="translate(-555.581 -145.955)"/>
                    <path id="패스_1480" d="M596.327 145.955l1.073 2.174 2.4.349-1.736 1.692.41 2.39-2.146-1.128-2.146 1.128.41-2.39-1.736-1.692 2.4-.349z" class="cls-17" data-name="패스 1480" transform="translate(-550.963 -145.955)"/>
                    <g id="그룹_994" class="cls-19" data-name="그룹 994" transform="translate(1.156 12.351)">
                        <path id="선_107" d="M0 0h39.631" class="cls-20" data-name="선 107"/>
                        <path id="선_108" d="M0 0h65.768" class="cls-20" data-name="선 108" transform="translate(23.461 8.918)"/>
                        <path id="선_109" d="M0 0h16.119" class="cls-20" data-name="선 109" transform="translate(0 8.918)"/>
                        <path id="선_110" d="M0 0h89.228" class="cls-20" data-name="선 110" transform="translate(0 17.836)"/>
                        <path id="선_111" d="M0 0h18.273" class="cls-20" data-name="선 111" transform="translate(70.955 26.754)"/>
                        <path id="선_112" d="M0 0h63.895" class="cls-20" data-name="선 112" transform="translate(0 26.754)"/>
                        <path id="선_113" d="M0 0h42.285" class="cls-20" data-name="선 113" transform="translate(46.944)"/>
                    </g>
                </g>
                <g id="그룹_996" data-name="그룹 996" transform="translate(1.993 127.073)">
                    <circle id="타원_75" cx="22.136" cy="22.136" r="22.136" class="cls-17" data-name="타원 75" transform="rotate(-67.608 30.568 20.466)"/>
                    <path id="패스_1481" d="M561.387 198.96a7.973 7.973 0 1 0-8.708 0 11.241 11.241 0 0 0-8.655 10.926v6.624a22.021 22.021 0 0 0 26.018 0v-6.622a11.242 11.242 0 0 0-8.655-10.928z" class="cls-16" data-name="패스 1481" transform="translate(-528.134 -169.729)"/>
                </g>
                <g id="그룹_998" data-name="그룹 998" transform="translate(63.344 135.574)">
                    <path id="패스_1482" d="M572.909 180.915l1.073 2.174 2.4.349-1.736 1.692.41 2.39-2.146-1.128-2.146 1.128.41-2.39-1.736-1.692 2.4-.349z" class="cls-9" data-name="패스 1482" transform="translate(-569.437 -180.915)"/>
                    <path id="패스_1483" d="M578.764 180.915l1.073 2.174 2.4.349-1.737 1.692.41 2.39-2.146-1.128-2.146 1.128.41-2.39-1.736-1.692 2.4-.349z" class="cls-9" data-name="패스 1483" transform="translate(-564.818 -180.915)"/>
                    <path id="패스_1484" d="M584.618 180.915l1.073 2.174 2.4.349-1.736 1.692.41 2.39-2.146-1.128-2.146 1.128.41-2.39-1.736-1.692 2.4-.349z" class="cls-9" data-name="패스 1484" transform="translate(-560.2 -180.915)"/>
                    <path id="패스_1485" d="M590.472 180.915l1.073 2.174 2.4.349-1.736 1.692.41 2.39-2.146-1.128-2.146 1.128.41-2.39-1.737-1.692 2.4-.349z" class="cls-9" data-name="패스 1485" transform="translate(-555.581 -180.915)"/>
                    <path id="패스_1486" d="M596.327 180.915l1.073 2.174 2.4.349-1.736 1.692.41 2.39-2.146-1.128-2.146 1.128.41-2.39-1.736-1.692 2.4-.349z" class="cls-17" data-name="패스 1486" transform="translate(-550.963 -180.915)"/>
                    <g id="그룹_997" class="cls-19" data-name="그룹 997" transform="translate(1.156 12.351)">
                        <path id="선_114" d="M0 0h22.282" class="cls-20" data-name="선 114"/>
                        <path id="선_115" d="M0 0h48.351" class="cls-20" data-name="선 115" transform="translate(40.878 8.918)"/>
                        <path id="선_116" d="M0 0h33.536" class="cls-20" data-name="선 116" transform="translate(0 8.918)"/>
                        <path id="선_117" d="M0 0h89.228" class="cls-20" data-name="선 117" transform="translate(0 17.836)"/>
                        <path id="선_118" d="M0 0h68.93" class="cls-20" data-name="선 118" transform="translate(20.298 26.755)"/>
                        <path id="선_119" d="M0 0h13.238" class="cls-20" data-name="선 119" transform="translate(0 26.755)"/>
                        <path id="선_120" d="M0 0h59.634" class="cls-20" data-name="선 120" transform="translate(29.594)"/>
                    </g>
                </g>
                <g id="그룹_999" data-name="그룹 999" transform="translate(8.757 196.376)">
                    <circle id="타원_76" cx="22.136" cy="22.136" r="22.136" class="cls-17" data-name="타원 76"/>
                    <path id="패스_1487" d="M561.387 233.92a7.973 7.973 0 1 0-8.708 0 11.241 11.241 0 0 0-8.655 10.927v6.624a22.018 22.018 0 0 0 26.018 0v-6.624a11.242 11.242 0 0 0-8.655-10.927z" class="cls-16" data-name="패스 1487" transform="translate(-534.897 -211.453)"/>
                </g>
                <g id="그룹_1001" data-name="그룹 1001" transform="translate(63.344 198.113)">
                    <path id="패스_1488" d="M572.909 215.875l1.073 2.174 2.4.349-1.736 1.692.41 2.39-2.146-1.128-2.146 1.128.41-2.39-1.736-1.692 2.4-.349z" class="cls-9" data-name="패스 1488" transform="translate(-569.437 -215.875)"/>
                    <path id="패스_1489" d="M578.764 215.875l1.073 2.174 2.4.349-1.737 1.692.41 2.39-2.146-1.128-2.146 1.128.41-2.39-1.736-1.692 2.4-.349z" class="cls-9" data-name="패스 1489" transform="translate(-564.818 -215.875)"/>
                    <path id="패스_1490" d="M584.618 215.875l1.073 2.174 2.4.349-1.736 1.692.41 2.39-2.146-1.128-2.146 1.128.41-2.39-1.736-1.692 2.4-.349z" class="cls-9" data-name="패스 1490" transform="translate(-560.2 -215.875)"/>
                    <path id="패스_1491" d="M590.472 215.875l1.073 2.174 2.4.349-1.736 1.692.41 2.39-2.146-1.128-2.146 1.128.41-2.39L587 218.4l2.4-.349z" class="cls-9" data-name="패스 1491" transform="translate(-555.581 -215.875)"/>
                    <path id="패스_1492" d="M596.327 215.875l1.073 2.174 2.4.349-1.736 1.692.41 2.39-2.146-1.128-2.146 1.128.41-2.39-1.736-1.692 2.4-.349z" class="cls-9" data-name="패스 1492" transform="translate(-550.963 -215.875)"/>
                    <g id="그룹_1000" class="cls-19" data-name="그룹 1000" transform="translate(1.156 12.351)">
                        <path id="선_121" d="M22.282 0H0" class="cls-20" data-name="선 121" transform="translate(66.946 26.754)"/>
                        <path id="선_122" d="M16.943 0H0" class="cls-20" data-name="선 122" transform="translate(0 17.836)"/>
                        <path id="선_123" d="M64.944 0H0" class="cls-20" data-name="선 123" transform="translate(24.284 17.836)"/>
                        <path id="선_124" d="M89.228 0H0" class="cls-20" data-name="선 124" transform="translate(0 8.918)"/>
                        <path id="선_125" d="M28.362 0H0" class="cls-20" data-name="선 125"/>
                        <path id="선_126" d="M53.807 0H0" class="cls-20" data-name="선 126" transform="translate(35.421)"/>
                        <path id="선_127" d="M59.634 0H0" class="cls-20" data-name="선 127" transform="translate(0 26.754)"/>
                    </g>
                </g>
            </g>
        </g>
        <g id="그룹_1010" data-name="그룹 1010" transform="translate(484.061 222.461)">
            <path id="패스_1493" d="M509.939 262.012c0 1.34-13.982 2.426-31.227 2.426s-31.229-1.086-31.229-2.426 13.982-2.427 31.229-2.427 31.227 1.086 31.227 2.427z" class="cls-21" data-name="패스 1493" transform="translate(-433.316 -48.809)"/>
            <path id="패스_1494" d="M488.427 192.524s3.458 4.012 4.093 4.247c.39.145 3.036.646 3.907.805a3.4 3.4 0 0 1 .95.268 3.048 3.048 0 0 1 .787.637 24.751 24.751 0 0 1 1.8 2.179 2.9 2.9 0 0 1 .685 1.5q.564 2.549.966 5.129a.461.461 0 0 1-.013.27c-.1.2-.4.148-.563.007s-.29-.349-.5-.415l-.007.436a1.031 1.031 0 0 1-.959-.138 7.9 7.9 0 0 1-3.016-2.918 3.294 3.294 0 0 0-.476-.7c-.533-.526-1.365-.517-2.086-.7a11.654 11.654 0 0 1-1.955-.633c-1.122-.513-1.259-1.862-1.367-2.116a1.021 1.021 0 0 0-.29-.347c-.735-.664-3.658-2.871-3.658-2.871" class="cls-22" data-name="패스 1494" transform="translate(-402.356 -101.713)"/>
            <path id="패스_1495" d="M466.651 144.325c1.628.47 2.488 2.574 3.041 4.012a22.332 22.332 0 0 1 1.218 5.413 7.421 7.421 0 0 1-.265 3.807 8.009 8.009 0 0 1-1.063 1.656 3.459 3.459 0 0 1-.766.807 1.183 1.183 0 0 1-1.061.181c-.508-.195-.71-.791-.855-1.315a34.738 34.738 0 0 0-3.894-9.851" class="cls-9" data-name="패스 1495" transform="translate(-421.07 -139.736)"/>
            <path id="패스_1496" d="M466.054 150.925c.032-1.089 1.177-1.8 2.17-.671.821.932 1.039 2.7 1.088 4.012.055 1.567-1.161 1.875-2.159 2.095" class="cls-23" data-name="패스 1496" transform="translate(-418.666 -135.51)"/>
            <g id="그룹_1004" data-name="그룹 1004" transform="translate(53.4 199.634)">
                <path id="패스_1497" d="M474.779 254.9a36.159 36.159 0 0 1-.206 4.526c-.236 1.184-4.057.8-4.424.129s.091-6.2.091-6.2" class="cls-24" data-name="패스 1497" transform="translate(-468.947 -253.357)"/>
                <path id="패스_1498" d="M469.512 258.491c-.1 1.252-.1 3.617-.1 3.617l3.916.945.5-.665a6.87 6.87 0 0 0 2.3 1.254 15.351 15.351 0 0 0 3.694.356c3.236-.216 5.469-1.225 5.58-1.7.463-1.979-3.837-1.732-4.712-1.8a5.668 5.668 0 0 1-4.7-3.3c-.356-.93-.147-1.141-.682-1.018a1.3 1.3 0 0 0-.834.587 2.335 2.335 0 0 1-2.474 1.057 2.794 2.794 0 0 1-1.479-.848 1.615 1.615 0 0 0-1.009 1.515z" class="cls-14" data-name="패스 1498" transform="translate(-469.415 -251.155)"/>
            </g>
            <path id="패스_1499" d="M470.42 241.419c.372-5.869-4.368-13.723-4.368-13.723s12.8-7.032 12.991-9.22c0 0 1.753 12.077 2.383 16.338 1.091 7.4-2.6 49.617-2.6 49.617a15.222 15.222 0 0 1-6.236.086s-.665-16.306-3.331-27.352c-1.266-5.238.72-14.295 1.161-15.746z" class="cls-9" data-name="패스 1499" transform="translate(-418.668 -81.239)"/>
            <path id="패스_1500" d="M478.246 194.427c4.8 10.723 10.023 45.321 11.273 57.266.53 5.064-3.687 11-8.6 6.42-5.864-5.467-14.113-30.511-17.061-34.932s-13.975-8.474-6.444-30.9" class="cls-9" data-name="패스 1500" transform="translate(-427.52 -101.908)"/>
            <g id="그룹_1005" data-name="그룹 1005" transform="translate(23.034 201.386)">
                <path id="패스_1501" d="M458.194 254.336s-.433 4.71-.6 5.907-4.007 1.029-4.41.374-.256-6.19-.256-6.19" class="cls-24" data-name="패스 1501" transform="translate(-452.078 -254.336)"/>
                <path id="패스_1502" d="M452.46 259.483a25.7 25.7 0 0 0 .127 3.32l4.415.3.267-.723a6.937 6.937 0 0 0 2.506.909l3.724.25c2.728.182 4.3-.061 4.4-.537.422-1.986-2.841-2.113-3.69-2.17-2.435-.165-5-1.481-5.488-2.757-.356-.925-.156-1.14-.671-1.005a1.261 1.261 0 0 0-.8.6 2.241 2.241 0 0 1-2.386 1.1 2.674 2.674 0 0 1-1.442-.819 1.61 1.61 0 0 0-.962 1.532z" class="cls-14" data-name="패스 1502" transform="translate(-452.44 -252.209)"/>
            </g>
            <path id="패스_1503" d="M470.289 260.893c-.814 4.172-11.714 2.614-11.479-1.082.335-5.254-3.347-12.043-4.758-37.051-.161-2.857-3.023-3.275-4.15-11.045s3.5-16.4 3.5-16.4l16.771-2.4s6.447 14.544 5.113 29.044-4.032 34.02-4.997 38.934z" class="cls-9" data-name="패스 1503" transform="translate(-431.546 -101.405)"/>
            <path id="패스_1504" d="M456.814 232.3s-3.814 7.553-4.261 13.012c-.655 7.989.154 34.282.154 34.282s4.125.9 6.327.247c0 0 9.681-46.651 10.037-51.667s-12.257 4.126-12.257 4.126z" class="cls-9" data-name="패스 1504" transform="translate(-429.519 -74.773)"/>
            <path id="패스_1505" d="M488.932 167.646c-1.9-2.175-7.912-5.758-15.955-5.5-5.542.174-20.631 1.089-22.318 4.8-.862 1.894-1.787 21.3-.526 27.991.95 5.03 3.377 17.493 3.377 20.5s-1.615 4.3-.862 5.172c1.689 1.955 13.236 2.776 18.656 2.776 4.825 0 13.037-1.286 13.454-2.832.619-2.3-.941-2.209-1.152-4.614s-1.349-18.268.064-20.574c2.241-3.66 4.469-13.3 4.642-16.057s2.517-9.487.62-11.662z" class="cls-25" data-name="패스 1505" transform="translate(-431.713 -125.691)"/>
            <path id="패스_1506" d="M454.278 174.042c-.574 1.2-4.479 7.478-4.479 7.478l-.159.751a31.857 31.857 0 0 0 .4 3.356c.95 5.03 3.377 17.493 3.377 20.5s-1.615 4.3-.862 5.172c.676.782 2.934 1.379 5.737 1.818a7.222 7.222 0 0 1-1.3-1.866c-.225-.882 1.25-.656 1.522-1.4s-3.352-15.284-4.238-22.268.578-14.737.002-13.541z" class="cls-26" data-name="패스 1506" transform="translate(-431.616 -116.39)"/>
            <path id="패스_1507" d="M470.377 160.174s.054 6.692.324 6.962a10.593 10.593 0 0 0 1.592.9s-.943 5.816-2.4 5.383-11.082-5.292-11.082-5.292 1.365-.555 1.365-1.095-1.3-11.064-1.3-11.064" class="cls-22" data-name="패스 1507" transform="translate(-424.381 -130.554)"/>
            <path id="패스_1508" d="M466.373 144.73c1.4.381 5.1-.383 6.12 1.147s1.912 5.227 2.3 6.247a65.463 65.463 0 0 1 1.81 6.293c.721 2.728 1.909 7.724-.759 10.005a3.546 3.546 0 0 1-2.059 1.045c-1.263.229-2.521.488-3.784.716-1.959.351-4.127.76-6.071.129-2.6-.844-4.023-4.415-4.69-6.841l-3.825-13.9z" class="cls-22" data-name="패스 1508" transform="translate(-427.062 -139.417)"/>
            <path id="패스_1509" d="M467.293 166.614s.53 24.629 1.533 39.613l-3.622 4.995-2.49-6.256a190.59 190.59 0 0 1 2.356-38.182z" class="cls-9" data-name="패스 1509" transform="translate(-421.422 -122.153)"/>
            <path id="패스_1510" d="M467.779 166.089l-.084.34a6.97 6.97 0 0 1-.75 1.825l-2.224.17s-1.512-.791-1.71-1.642 2.479-2.245 2.479-2.245l.326.129a4.827 4.827 0 0 1 1.936 1.392z" class="cls-9" data-name="패스 1510" transform="translate(-421.075 -123.792)"/>
            <path id="패스_1511" d="M460.772 160.849a13.857 13.857 0 0 0-3.03 3.059 28.476 28.476 0 0 0 7.388 9.177 12.849 12.849 0 0 1 4.51-5.64s-8.07-1.671-8.868-6.596z" class="cls-27" data-name="패스 1511" transform="translate(-425.224 -126.701)"/>
            <path id="패스_1512" d="M464.393 167.25a9.553 9.553 0 0 1 4.42 4.2 21.11 21.11 0 0 0-.6-7.8s-1.494-2.51-2.123-2.558c.26 2.97-1.697 6.158-1.697 6.158z" class="cls-27" data-name="패스 1512" transform="translate(-419.977 -126.506)"/>
            <path id="패스_1513" d="M472.735 164.54c4.9 2.724 13.288 30.735 14.22 31.041s19.928 22.679 19.928 22.679l-3.012 4.077s-19.171-13.943-24.681-20.048c-3.875-4.3-11.207-23.492-11.207-23.492s-.149-16.982 4.752-14.257z" class="cls-25" data-name="패스 1513" transform="translate(-417.146 -124.023)"/>
            <path id="패스_1514" d="M479.385 193.464c-1.9-1.678-7.916-19.476-7.916-19.476l-1.447 6.093c2.4 5.617 5.478 12.215 7.558 14.52 5.506 6.105 24.681 20.048 24.681 20.048l1.174-1.587s-22.154-17.919-24.05-19.598z" class="cls-26" data-name="패스 1514" transform="translate(-415.536 -116.336)"/>
            <g id="그룹_1007" data-name="그룹 1007" transform="translate(.416 87.132)">
                <path id="패스_1515" d="M470.035 190.492l-29.112 5.5a1.381 1.381 0 0 0-1.077 1.723l3.9 20.136a1.383 1.383 0 0 0 1.59.993l29.111-5.5a1.38 1.38 0 0 0 1.077-1.723l-3.9-20.136a1.38 1.38 0 0 0-1.589-.993z" class="cls-9" data-name="패스 1515" transform="translate(-439.796 -190.467)"/>
                <path id="패스_1516" d="M468.8 191.345l-27.873 5.261 3.861 19.994 27.873-5.261z" class="cls-28" data-name="패스 1516" transform="translate(-438.905 -189.775)"/>
                <g id="그룹_1006" data-name="그룹 1006" transform="translate(5.539 3.496)">
                    <path id="선_128" d="M3.045 17.02L0 0" class="cls-29" data-name="선 128" transform="translate(22.05)"/>
                    <path id="선_129" d="M3.045 17.02L0 0" class="cls-29" data-name="선 129" transform="translate(19.421 .51)"/>
                    <path id="선_130" d="M3.045 17.02L0 0" class="cls-29" data-name="선 130" transform="translate(15.639 1.284)"/>
                    <path id="선_131" d="M3.045 17.02L0 0" class="cls-29" data-name="선 131" transform="translate(11.856 2.059)"/>
                    <path id="선_132" d="M3.414 17.02L0 0" class="cls-29" data-name="선 132" transform="translate(7.705 2.834)"/>
                    <path id="선_133" d="M3.414 17.02L0 0" class="cls-29" data-name="선 133" transform="translate(3.922 3.608)"/>
                    <path id="선_134" d="M3.554 17.02L0 0" class="cls-29" data-name="선 134" transform="translate(0 4.383)"/>
                </g>
            </g>
            <g id="그룹_1008" data-name="그룹 1008" transform="translate(0 38.86)">
                <path id="패스_1517" d="M449.494 198.663s1.152 2.349 1.767 3.542c.4.776 3.461 3.381 4.687 5.456a5.316 5.316 0 0 1 .962 3.286 2.2 2.2 0 0 1-2.372 2c-.324-.07-.7-.227-.957-.025a1.254 1.254 0 0 0-.272.419 1.293 1.293 0 0 1-2.386-.327 2.183 2.183 0 0 1-2.907-.032 1.74 1.74 0 0 0 .7-1.538 3.468 3.468 0 0 0-.889-1.433 4.445 4.445 0 0 1-.912-2.8c.018-.716.211-1.413.29-2.123a6.747 6.747 0 0 0-.937-4.218" class="cls-22" data-name="패스 1517" transform="translate(-434.274 -135.73)"/>
                <path id="패스_1518" d="M463.553 179.381c-.88 3.136-14.279 23.762-14.279 23.762l7.173 26.146-4.089 2.558s-12.755-21.191-12.794-27.175 9.331-27.923 16.179-36.892c2.181-2.855 6.551-4.3 6.551-4.3" class="cls-25" data-name="패스 1518" transform="translate(-439.564 -163.483)"/>
            </g>
            <path id="패스_1519" d="M460.16 163.4c.882-.517 1.558-1.061 2.132-.216.3.449.488 1.066 1.007 1.22a1.04 1.04 0 0 0 1.181-.835 3.033 3.033 0 0 0-.193-1.585l-1.063-3.419a5.159 5.159 0 0 1-.249-3.426 3.761 3.761 0 0 1 1.081-1.383 11.454 11.454 0 0 1 5.249-2.245 55.76 55.76 0 0 0 5.649-1.159 6.107 6.107 0 0 0 2.152-1.084 4.64 4.64 0 0 0 1.524-3.478 7.185 7.185 0 0 0-1.1-3.708 6.158 6.158 0 0 1-.563 1.288 4.816 4.816 0 0 0-1.029-1.614c-.549 3.061-13.44 2.038-16.451 3.388-2.088.936-3.814 1.547-3.751 4.93a1.217 1.217 0 0 1-.408.537c-1.85 1.7-2.651 3.767-2.882 6.835-.284 3.755 1.9 7.821 4.045 10.916a6.974 6.974 0 0 0 1.592 1.9 4.218 4.218 0 0 0 2.995.678c.93-.179 2.76-.1 2.778-1.045.013-.676-1.435-1.885-1.835-2.431" class="cls-9" data-name="패스 1519" transform="translate(-429.424 -141.76)"/>
            <path id="패스_1520" d="M460.573 157.919a1.182 1.182 0 0 1-1.767 1.34 4.077 4.077 0 0 1-2.571-3.156c-.3-1.624.567-3.249 2.054-2.826a2.2 2.2 0 0 1 1.4 2.138" class="cls-22" data-name="패스 1520" transform="translate(-426.46 -132.728)"/>
            <path id="패스_1521" d="M467.1 158.638l-4.134.762a5.763 5.763 0 0 0 4.188 1.544" class="cls-23" data-name="패스 1521" transform="translate(-421.106 -128.445)"/>
            <path id="패스_1522" d="M476.113 246.528c.75-2.454-1.356-6.259-2.394-9.1s-8.828-25.531-8.828-25.531l-1.721 9.156c1.617 3.923 3.385 8.122 5.156 11.828a84.588 84.588 0 0 0 2.039 4.014c1.233 2.78 2.529 6.529 2.327 9.706-.442 1.451-2.427 10.508-1.163 15.746 2.665 11.046 3.331 27.352 3.331 27.352a15.806 15.806 0 0 0 1.911.225c-.224-4.025-.617-11.134-.66-12.54-.061-1.986-2.572-13.415-2.394-17.937a60.839 60.839 0 0 1 2.396-12.919z" class="cls-9" data-name="패스 1522" transform="translate(-420.941 -86.427)"/>
            <g id="그룹_1009" data-name="그룹 1009" transform="translate(31.069 92.948)">
                <path id="패스_1523" d="M461.271 203.077l-2.52.6-1.819-9.421 2.526-.534z" class="cls-9" data-name="패스 1523" transform="translate(-456.932 -193.719)"/>
                <path id="패스_1524" d="M463.772 196.655a2.294 2.294 0 0 0-2.678-1.826l-2.887.546.852 4.5 2.887-.546a2.292 2.292 0 0 0 1.826-2.674zm-3.546.671a1.286 1.286 0 1 1 1.5 1.025 1.286 1.286 0 0 1-1.499-1.025z" class="cls-9" data-name="패스 1524" transform="translate(-455.926 -192.875)"/>
            </g>
        </g>
        <g id="그룹_1017" data-name="그룹 1017" transform="translate(577.396 238.541)">
            <ellipse id="타원_77" cx="32.444" cy="2.922" class="cls-21" data-name="타원 77" rx="32.444" ry="2.922" transform="translate(0 212.294)"/>
            <g id="그룹_1012" data-name="그룹 1012" transform="translate(40.059 33.83)">
                <path id="패스_1525" d="M540.987 174.035l-19.912-2.674v39.908l10.8 1.451a1.8 1.8 0 0 0 2.02-1.3l8.6-35.336a1.7 1.7 0 0 0-1.508-2.049z" class="cls-26" data-name="패스 1525" transform="translate(-508.655 -168.319)"/>
                <path id="패스_1526" d="M521.34 170.833l-7.17 31.5a1.507 1.507 0 0 0 1.256 1.826l22.318 3.2a1.507 1.507 0 0 0 1.683-1.156l7.17-31.5a1.508 1.508 0 0 0-1.256-1.826l-22.318-3.206a1.51 1.51 0 0 0-1.683 1.162z" class="cls-25" data-name="패스 1526" transform="translate(-514.132 -169.66)"/>
                <path id="패스_1527" d="M521.969 170.884l-6.869 30.155 22.159 3.182 6.865-30.154z" class="cls-28" data-name="패스 1527" transform="translate(-513.365 -168.695)"/>
                <g id="그룹_1011" data-name="그룹 1011" transform="translate(6.501 4.889)">
                    <path id="선_135" d="M18.831 2.704L0 0" class="cls-29" data-name="선 135" transform="translate(3.084)"/>
                    <path id="선_136" d="M18.831 2.704L0 0" class="cls-29" data-name="선 136" transform="translate(2.45 2.85)"/>
                    <path id="선_137" d="M11.768 1.69L0 0" class="cls-29" data-name="선 137" transform="translate(1.673 6.227)"/>
                    <path id="선_138" d="M11.768 1.69L0 0" class="cls-29" data-name="선 138" transform="translate(.836 8.677)"/>
                    <path id="선_139" d="M11.768 1.69L0 0" class="cls-29" data-name="선 139" transform="translate(0 11.127)"/>
                    <path id="선_140" d="M11.768 1.69L0 0" class="cls-29" data-name="선 140" transform="translate(4.315 24.665)"/>
                </g>
            </g>
            <path id="패스_1528" d="M515.3 194.39a9.745 9.745 0 0 0 3.1-2.767q1.331-1.583 2.66-3.168a2.625 2.625 0 0 0 .757-1.413c-1.487-.122-2.445 1.81-3.932 1.925a31.1 31.1 0 0 1 2.953-7.016 2.152 2.152 0 0 0 .426-1.748 11.334 11.334 0 0 0-4.129 3.016 22.066 22.066 0 0 0-2.24 2.848 30.654 30.654 0 0 0-4 9.837" class="cls-23" data-name="패스 1528" transform="translate(-476.625 -127.514)"/>
            <g id="그룹_1013" data-name="그룹 1013" transform="translate(11.019 78.798)">
                <path id="패스_1529" d="M519.127 208.241L503.192 194.8s-7.417 10.059-4.623 19.762c1.374 4.771 3.1 7.138 3.848 9.4.7 2.114 5.5 32.055 5.138 34.245s-2.934 8.315-3.916 14.755c-1.182 7.748-.982 32.989-1.9 39.681s5.263 7.825 5.6 5.56c2.905-19.352 10.578-49.508 11.651-59.184s.642-27.39.137-50.778z" class="cls-22" data-name="패스 1529" transform="translate(-497.866 -194.798)"/>
                <path id="패스_1530" d="M512.866 212.98l-6.93 15.9a35.631 35.631 0 0 1 4.835 16.669c.116 3.068-.156 6.141-.07 9.211a3.046 3.046 0 0 0 .093.667c.928-4.549 1.621-8.3 1.893-10.74.758-6.834.762-17.7.522-31.724a2.753 2.753 0 0 0-.343.017z" class="cls-23" data-name="패스 1530" transform="translate(-491.558 -180.467)"/>
                <path id="패스_1531" d="M508.145 260.955s-1.483 7.021-1.084 7.916 1.835 3.5 3.3 4.436c1.544.987 4.961 2.159 5.232 2.587a1.062 1.062 0 0 1-.195 1.435 7.076 7.076 0 0 1-4.871 1.234c-4.633-.764-5.113-2.812-7.81-3.141-.467-.055-1.329.633-2.619-.027a3.061 3.061 0 0 1-1.8-2.971c.19-1.936 1.277-3.529 2.05-4.959s1.318-7.977 1.318-7.977" class="cls-22" data-name="패스 1531" transform="translate(-497.593 -143.765)"/>
                <path id="패스_1532" d="M516.067 273.649c.338-.578.424-1.453.111-1.665a27.357 27.357 0 0 0-2.884-1.735c-.9-.413-2.324-.778-1.823-.508s-.422 1.286-1.263 1.234c-2.9-.177-5.045-2.107-6.7-2.521-2.388-.6-3.388-3.415-3.492-3.873a11.106 11.106 0 0 0-1.716 3.27 5.7 5.7 0 0 0-.352 2.5 5.827 5.827 0 0 1 .265 2.379 4.562 4.562 0 0 0 1.716.619 6.783 6.783 0 0 0 1.848.027l.206-1.5a6.823 6.823 0 0 1 1.476.145 8.018 8.018 0 0 1 2.256 1.054c.331.4.6 1.116 1.036 1.338a9.25 9.25 0 0 0 3.809.95c3.114.177 4.931-.727 5.507-1.714z" class="cls-9" data-name="패스 1532" transform="translate(-497.899 -139.747)"/>
            </g>
            <g id="그룹_1014" data-name="그룹 1014" transform="translate(16.47 77.244)">
                <path id="패스_1533" d="M538.516 329.094c-.344-.379-4.034-.979-5.766-1.7a9.971 9.971 0 0 1-4.037-3.844c-.388-.941-.3-5.7-.249-7.7.345-13.78 2.891-47.454 3.259-55.518.64-14.016-1.179-28.483-6.571-50.985l-20.082-15.409s-5.622 10.454-3.741 20.451c1.093 5.8 5.9 6.69 6.715 8.944s12.964 38.6 12.964 38.6a68.324 68.324 0 0 0-2.5 16.465c-.118 7.347 3.215 29.511 3.832 37.955.073 1.649.358 5.6-.129 6.857-.6 1.54-2.114 3.351-2.037 5.3a2.987 2.987 0 0 0 2.281 2.642c1.424.442 2.216-.379 2.7-.4 2.832-.116 3.615 1.83 8.5 1.828a7.729 7.729 0 0 0 4.851-2.018 1.034 1.034 0 0 0 .01-1.468z" class="cls-22" data-name="패스 1533" transform="translate(-500.946 -193.929)"/>
                <path id="패스_1534" d="M530.7 273.247c.267-.626.231-1.5-.123-1.664a28.039 28.039 0 0 0-3.22-1.245c-.986-.261-2.508-.388-1.952-.2s-.254 1.338-1.129 1.426c-3.021.3-5.5-1.259-7.268-1.4-2.547-.2-3.483-2.821-3.655-3.256a11.706 11.706 0 0 0-1.8 3.512 5.527 5.527 0 0 0-.013 2.526 5.524 5.524 0 0 1 .61 2.309 4.808 4.808 0 0 0 1.859.331 7.4 7.4 0 0 0 1.911-.276v-1.515a7.331 7.331 0 0 1 1.544-.1 5.128 5.128 0 0 1 2.49.88c.415.313.852.839 1.342.962a10.245 10.245 0 0 0 3.966.3c3.238-.329 4.981-1.519 5.438-2.59z" class="cls-9" data-name="패스 1534" transform="translate(-492.708 -136.358)"/>
            </g>
            <path id="패스_1535" d="M503.877 194.522c-1.363 1.5-6.22 9.588-6.272 16.175s2.292 10.812 2.5 12.188c1.54 10.062 3.03 22.2 3.03 22.857s5.712 4.469 13.393 3.986c14.193-.894 19.712-4.612 19.712-4.612s-.673-24.375-2.86-36.393c-1.1-6.025-5.871-15.717-5.871-15.717" class="cls-9" data-name="패스 1535" transform="translate(-487.111 -117.414)"/>
            <path id="패스_1536" d="M493.872 179.639s2.286 11.358 2.885 13.379 3.565 14.855 6.377 14.631 18.205-13.077 18.205-13.077l-2.181-4.36-13.551 6.46s-1.225-14.671-2.3-18.164" class="cls-22" data-name="패스 1536" transform="translate(-490.056 -128.851)"/>
            <path id="패스_1537" d="M496.8 183.048c1.435 5.072 4.376 10.415 5.254 14.347.177.791 9.56-2.622 9.581-6.147" class="cls-23" data-name="패스 1537" transform="translate(-487.745 -125.269)"/>
            <path id="패스_1538" d="M503.3 170.339s-4.494.479-6.773 2.222c-5.81 4.445-1.313 20.583-1.313 20.583s-.286.86 3.614.642a28.03 28.03 0 0 0 7.029-1.329l-1.127-13.222" class="cls-14" data-name="패스 1538" transform="translate(-490.305 -135.295)"/>
            <path id="패스_1539" d="M496.157 175.446s-.492 9.486 1.225 14.274a15.573 15.573 0 0 0 3.182-.417z" class="cls-9" data-name="패스 1539" transform="translate(-488.305 -131.266)"/>
            <path id="패스_1540" d="M519.9 154.094c2.707 3.512 2.172 8.449 1.5 12.832q-.5 3.325-1.012 6.649a3.337 3.337 0 0 1-4.277 3.51q.019 2.75.034 5.5-4.707.115-9.415.038a9.092 9.092 0 0 0-.814-3.735c-1.535-.03-2.562-1.569-3.163-2.982a43.175 43.175 0 0 1-1.685-5.034 27.811 27.811 0 0 1-1.331-6.9 9.984 9.984 0 0 1 1.993-6.608 11.982 11.982 0 0 1 3.825-2.857c1.946-1.016 4.284-1.818 6.292-.928" class="cls-22" data-name="패스 1540" transform="translate(-485.428 -148.823)"/>
            <path id="패스_1541" d="M518.925 172.745a5.736 5.736 0 0 1 .259-4.111 2.723 2.723 0 0 1 .825-1.045 1.744 1.744 0 0 1 1.678-.174 1.87 1.87 0 0 1 .843.785 23.989 23.989 0 0 0 .589-7.687 10 10 0 0 0-6.342-8.708c-6.648-2.73-16.2-.032-18.9 6.492-2.039 4.928-1.005 12.041 2.9 16.173 3.454 3.656 8.426 4.193 13.012 3.44 2.347-.385 5.969-.154 7.184-3.345a.356.356 0 0 0-.365-.474c-.951.074-1.608-1.004-1.683-1.346z" class="cls-9" data-name="패스 1541" transform="translate(-487.7 -150.749)"/>
            <path id="패스_1542" d="M512.441 163.485c.247.388.188.909.42 1.3a3.056 3.056 0 0 0 1.606 1.231c1.129.522.864 2.166.832 2.9.851-.565.989-2.106 1.195-2.889.231-.878.377-1.78.633-2.651a13.268 13.268 0 0 0 .76-2.538 10.428 10.428 0 0 0-3.995-8.435 5.555 5.555 0 0 0-6.22.073 4.864 4.864 0 0 0-1.776 2.258 1.5 1.5 0 0 0-.068 1.213" class="cls-9" data-name="패스 1542" transform="translate(-480.704 -150.165)"/>
            <path id="패스_1543" d="M501.036 171.854c.159-1.073.449-2.327 1.449-2.751a3.152 3.152 0 0 1 .884-.186 73.2 73.2 0 0 1 9.224-.436 8.614 8.614 0 0 1 3.732.655c1.787.894 2.769 2.821 3.633 4.622" class="cls-9" data-name="패스 1543" transform="translate(-484.404 -136.769)"/>
            <path id="패스_1544" d="M530.844 210.439a25.6 25.6 0 0 1-1.771-2.088c-.85-1.671-1.594-8.712-1.3-10.51.315-1.928 2.02-2.966 2.791-7.258a15.874 15.874 0 0 0-2.542-11.664c-1.791-2.6-.73-2.587-1.342-5.775a3.029 3.029 0 0 0-.633-1.587 15.38 15.38 0 0 0-3.581-1.7c-4.978-.771-7.9-.168-12.935.052a43.09 43.09 0 0 0-7.42.939c-2.707.6-5.062 1.313-5.619 4.986a36.968 36.968 0 0 0 1.589 16.8c1.145 3.569 7.977 15.918 6.283 18.307a8.224 8.224 0 0 0-1.472 2.267c-.428 2.5 5.211 3.372 7.624 3.571a94.092 94.092 0 0 0 11.583-.073c2.792-.129 8.9-1.1 9.334-4.555a2.492 2.492 0 0 0-.589-1.712z" class="cls-14" data-name="패스 1544" transform="translate(-488.279 -135.972)"/>
            <path id="패스_1545" d="M518.513 184.784a9.951 9.951 0 0 1-.741 2.88c-.7.36-3.479.957-5.073.229a73.578 73.578 0 0 0-2.292-9.7s8.106 5.662 8.106 6.591z" class="cls-9" data-name="패스 1545" transform="translate(-477.011 -129.103)"/>
            <path id="패스_1546" d="M504.928 164.718c-1.916-.542-3.98.537-5.258 2.064-1.472 1.766-2.111 4.508-.733 6.349a6.166 6.166 0 0 0 2 1.594 10.585 10.585 0 0 0 7.522 1.4c2.537-.623 4.762-2.893 4.732-5.5-.027-2.363-1.751-4.336-3.5-5.93" class="cls-9" data-name="패스 1546" transform="translate(-486.661 -139.842)"/>
            <g id="그룹_1016" data-name="그룹 1016" transform="translate(37.937 36.988)">
                <path id="패스_1547" d="M512.946 184.045s9.195 22.223 13.186 22.223c2.9 0 10.018-20.515 10.018-20.515l-4.5-2.129-5.016 8.592-5.077-16.025" class="cls-22" data-name="패스 1547" transform="translate(-512.946 -167.666)"/>
                <path id="패스_1548" d="M522.905 186.831s1.49-2.347 1.381-4.012c-.041-.635-.419-3.656-.1-4.25a17.727 17.727 0 0 1 1.5-2.916c.433-.377 2.03-.986 2.42-.716s.876-.971 1.524-.864a1.373 1.373 0 0 1 1.188 1.241c0 .594.864.7.973 1.134a6.068 6.068 0 0 0 .215 1.134c.163.324.64.165.81.971.157.741-.054.81 0 1.19s.379.342.27 1.063a9.045 9.045 0 0 1-1.032 2.463 7.124 7.124 0 0 1-2.508 2.538 4.789 4.789 0 0 0-1.463 2.02" class="cls-22" data-name="패스 1548" transform="translate(-505.089 -169.343)"/>
                <path id="패스_1549" d="M524.749 171.741a.551.551 0 0 0-.794-.213.707.707 0 0 0-.175.882l2.719 6.152s.22.252.641-.116c.456-.4.309-.6.309-.6s-2.587-5.928-2.7-6.105z" class="cls-9" data-name="패스 1549" transform="translate(-504.463 -171.426)"/>
                <g id="그룹_1015" data-name="그룹 1015" transform="translate(20.656 5.933)">
                    <path id="패스_1550" d="M526.987 174.829a6.266 6.266 0 0 1-1.657 1.728c-.424.4-.372.655-.837 1.064.818-.061.676-.544 1.737-1.308a2.249 2.249 0 0 0 1.095-1.342.186.186 0 0 0-.338-.143z" class="cls-23" data-name="패스 1550" transform="translate(-524.493 -174.742)"/>
                </g>
            </g>
            <path id="패스_1551" d="M508.218 169.538c2.394.125 9.367-1.1 13.241 2.953 3.245 3.4 5.105 12.3 6.411 15.9-3.252 3.315-6.384 5.987-11.311 4.912-.186-.14-2.63-7.832-4.41-8.517" class="cls-14" data-name="패스 1551" transform="translate(-478.738 -135.99)"/>
            <path id="패스_1552" d="M515.424 238.374c-.905-5.848-6.5-23.976-6.742-24.474a21.876 21.876 0 0 1-6.077-6.776c-.689 3.973 1.123 7.9 2.821 11.562 2.966 6.39 4.724 13.338 7.279 19.9" class="cls-9" data-name="패스 1552" transform="translate(-483.285 -106.276)"/>
        </g>
        <g id="그룹_1018" data-name="그룹 1018" transform="translate(619.616 64.845)">
            <path id="패스_1553" d="M527.242 61.21c.064-.152-7.866 4.762-7.866 4.762l2.061 13.358 3.889-9.991 10.247-1.955 14.6-13.731z" class="cls-30" data-name="패스 1553" transform="translate(-512.156 -53.652)"/>
            <path id="패스_1554" d="M549.264 53.652L520.528 79.33l3.89-9.992z" class="cls-31" data-name="패스 1554" transform="translate(-511.247 -53.652)"/>
            <path id="패스_1555" d="M553.357 53.652l-38.017 8.073 7.22 4.247 30.8-12.32-24.849 15.686 12.279 7.582z" class="cls-3" data-name="패스 1555" transform="translate(-515.34 -53.652)"/>
        </g>
        <path id="패스_1556" d="M458.9 154.663c.106.191.707.143.821.17.249.061.148.107 1.342 1.39.88.945 2.215 1.1 4.569.027 1.8-.819 1.4-2.2 1.465-2.9s.213-.834.5-.921.458-.048.9.492a2.92 2.92 0 0 0 3.209 1.472c1.519-.358 2.029-1.1 2.116-2.066.157-1.73.166-1.712.338-1.9s.057-.873-.1-1.233-1.275-.107-2.413.24a13.639 13.639 0 0 0-3.474 1.376c-.587.494-.494.732-.818.835s-.413-.145-1.175-.227a25.857 25.857 0 0 0-4.934 1.188c-1.138.347-2.685.962-2.615 1.347a2.607 2.607 0 0 0 .269.71zm9.964-3.052c.007-.481.444-.635 1.755-1.1s1.862-.7 2.15-.547.59.8.513 1.807c-.088 1.154-.367 1.732-1.445 2.061a1.93 1.93 0 0 1-2.386-.766 3.952 3.952 0 0 1-.586-1.455zm-8.134 2.023c.152-.284 1.927-.76 3.261-1.1s1.78-.458 2.052-.066a3.97 3.97 0 0 1 .322 1.521c.043.784-.061 1.488-2.131 2.129-1.461.453-2.216.188-2.927-.712-.617-.786-.73-1.489-.576-1.772z" class="cls-9" data-name="패스 1556" transform="translate(59.542 86.429)"/>
        <g id="그룹_1020" data-name="그룹 1020" transform="translate(553.674 154.504)">
            <rect id="사각형_1597" width="70.585" height="50.543" class="cls-3" data-name="사각형 1597" rx="4.52" transform="rotate(180 35.292 25.272)"/>
            <path id="패스_1557" d="M513.5 126.716l16.926-4.778L515.337 118" class="cls-3" data-name="패스 1557" transform="translate(-450.848 -92.548)"/>
            <g id="그룹_1019" data-name="그룹 1019" transform="translate(9.404 8.662)">
                <path id="사각형_1598" d="M0 0h10.532v2.418H0z" class="cls-17" data-name="사각형 1598" transform="rotate(180 13.117 8.136)"/>
                <path id="사각형_1599" d="M0 0h17.972v2.418H0z" class="cls-17" data-name="사각형 1599" transform="rotate(180 13.117 6.33)"/>
                <path id="사각형_1600" d="M0 0h51.677v2.989H0z" class="cls-17" data-name="사각형 1600" transform="rotate(180 25.838 13.443)"/>
                <path id="사각형_1601" d="M0 0h51.677v2.989H0z" class="cls-17" data-name="사각형 1601" transform="rotate(180 25.838 15.676)"/>
                <path id="사각형_1602" d="M0 0h17.972v2.418H0z" class="cls-17" data-name="사각형 1602" transform="rotate(180 13.117 4.523)"/>
                <path id="사각형_1603" d="M0 0h6.598v2.418H0z" class="cls-17" data-name="사각형 1603" transform="rotate(180 13.117 2.717)"/>
                <path id="패스_1558" d="M500.8 119.188a10.574 10.574 0 1 0 10.574-10.574 10.574 10.574 0 0 0-10.574 10.574z" class="cls-17" data-name="패스 1558" transform="translate(-470.272 -108.614)"/>
                <path id="패스_1559" d="M507.372 117.7a3.81 3.81 0 1 1 4.161 0 5.372 5.372 0 0 1 4.134 5.22v3.165a10.518 10.518 0 0 1-12.429 0v-3.165a5.367 5.367 0 0 1 4.134-5.22z" class="cls-32" data-name="패스 1559" transform="translate(-468.349 -106.966)"/>
            </g>
        </g>
        <g id="그룹_1021" data-name="그룹 1021" transform="translate(546.133 128.127)">
            <path id="패스_1560" d="M488.446 99.1a7.352 7.352 0 1 1-4.107-9.553 7.355 7.355 0 0 1 4.107 9.553z" class="cls-9" data-name="패스 1560" transform="translate(-474.262 -89.027)"/>
            <path id="패스_1561" d="M476.622 92.647l1.65 3.68 5.528-3.417" class="cls-33" data-name="패스 1561" transform="translate(-472.401 -86.171)"/>
        </g>
        <g id="그룹_1022" data-name="그룹 1022" transform="translate(831.18 73.621)">
            <path id="패스_1562" d="M647.717 63.016a7.352 7.352 0 1 1-9.653-3.862 7.351 7.351 0 0 1 9.653 3.862z" class="cls-9" data-name="패스 1562" transform="translate(-633.606 -58.558)"/>
            <path id="패스_1563" d="M636.13 65.71l3.77 1.44 1.5-6.32" class="cls-33" data-name="패스 1563" transform="translate(-631.614 -56.766)"/>
        </g>
        <g id="그룹_1024" data-name="그룹 1024" transform="translate(891.213 301.396)">
            <circle id="타원_78" cx="22.647" cy="22.647" r="22.647" class="cls-34" data-name="타원 78" transform="rotate(-80.738 30.959 26.319)"/>
            <circle id="타원_79" cx="15.875" cy="15.875" r="15.875" class="cls-20" data-name="타원 79" transform="translate(10.122 18.057)"/>
            <path id="패스_1564" d="M694.613 208.807a8.963 8.963 0 1 1-8.964-8.964 8.964 8.964 0 0 1 8.964 8.964z" class="cls-20" data-name="패스 1564" transform="translate(-659.653 -174.874)"/>
            <circle id="타원_80" cx="3.804" cy="3.804" r="3.804" class="cls-9" data-name="타원 80" transform="translate(22.192 30.128)"/>
            <g id="그룹_1023" data-name="그룹 1023" transform="translate(25.797)">
                <path id="선_141" d="M0 29.191L29.191 0" class="cls-18" data-name="선 141" transform="translate(.199 4.741)"/>
                <path id="패스_1565" d="M702.933 191.087h-5.2v-5.2" class="cls-18" data-name="패스 1565" transform="translate(-668.847 -185.885)"/>
                <path id="패스_1566" d="M701.48 192.54h-5.2v-5.2" class="cls-18" data-name="패스 1566" transform="translate(-669.994 -184.739)"/>
                <path id="패스_1567" d="M700.005 194.015h-5.2v-5.2" class="cls-18" data-name="패스 1567" transform="translate(-671.158 -183.575)"/>
                <path id="패스_1568" d="M686.787 207.233h-5.2v-5.2" class="cls-18" data-name="패스 1568" transform="translate(-681.586 -173.147)"/>
            </g>
        </g>
        <path id="패스_1569" d="M419.312 164.675a2.7 2.7 0 1 1-2.7-2.7 2.7 2.7 0 0 1 2.7 2.7z" class="cls-9" data-name="패스 1569" transform="translate(24.256 96.646)"/>
        <path id="패스_1570" d="M704.535 131.45a2.7 2.7 0 1 1-2.7-2.7 2.7 2.7 0 0 1 2.7 2.7z" class="cls-9" data-name="패스 1570" transform="translate(249.264 70.433)"/>
        <path id="패스_1571" d="M562.465 74.61a2.7 2.7 0 1 1-2.7-2.7 2.7 2.7 0 0 1 2.7 2.7z" class="cls-9" data-name="패스 1571" transform="translate(137.186 25.595)"/>
        <g id="그룹_1027" data-name="그룹 1027" transform="translate(605.695 144.587)">
            <g id="그룹_1025" data-name="그룹 1025" transform="translate(3.041)">
                <path id="패스_1572" d="M510.118 106.035a.861.861 0 0 1-.86-.862V99.09a.861.861 0 1 1 1.723 0v6.082a.863.863 0 0 1-.863.863z" class="cls-9" data-name="패스 1572" transform="translate(-509.258 -98.228)"/>
            </g>
            <g id="그룹_1026" data-name="그룹 1026" transform="translate(0 3.041)">
                <path id="패스_1573" d="M514.5 101.651h-6.08a.861.861 0 1 1 0-1.723h6.08a.861.861 0 1 1 0 1.723z" class="cls-9" data-name="패스 1573" transform="translate(-507.558 -99.928)"/>
            </g>
        </g>
        <g id="그룹_1030" data-name="그룹 1030" transform="translate(456.72 376.314)">
            <g id="그룹_1028" data-name="그룹 1028" transform="translate(3.041)">
                <path id="패스_1574" d="M426.842 235.572a.863.863 0 0 1-.862-.862v-6.082a.862.862 0 0 1 1.724 0v6.082a.863.863 0 0 1-.862.862z" class="cls-9" data-name="패스 1574" transform="translate(-425.98 -227.765)"/>
            </g>
            <g id="그룹_1029" data-name="그룹 1029" transform="translate(0 3.041)">
                <path id="패스_1575" d="M431.226 231.188h-6.084a.861.861 0 1 1 0-1.723h6.084a.861.861 0 1 1 0 1.723z" class="cls-9" data-name="패스 1575" transform="translate(-424.28 -229.465)"/>
            </g>
        </g>
        <g id="그룹_1033" data-name="그룹 1033" transform="translate(972.504 285.329)">
            <g id="그룹_1031" data-name="그룹 1031" transform="translate(3.041)">
                <path id="패스_1576" d="M715.169 184.711a.864.864 0 0 1-.862-.862v-6.084a.862.862 0 0 1 1.724 0v6.084a.864.864 0 0 1-.862.862z" class="cls-9" data-name="패스 1576" transform="translate(-714.307 -176.904)"/>
            </g>
            <g id="그룹_1032" data-name="그룹 1032" transform="translate(0 3.039)">
                <path id="패스_1577" d="M719.553 180.327h-6.084a.862.862 0 0 1 0-1.724h6.084a.862.862 0 1 1 0 1.724z" class="cls-9" data-name="패스 1577" transform="translate(-712.607 -178.603)"/>
            </g>
        </g>
        <g id="그룹_1035" data-name="그룹 1035" transform="translate(767.021 39.463)">
            <g id="그룹_1034" data-name="그룹 1034">
                <path id="사각형_1604" d="M0 0h39.522v25.695H0z" class="cls-7" data-name="사각형 1604" transform="rotate(18.38 -24.223 29.618)"/>
                <path id="패스_1578" d="M639.776 61.124l-37.494-12.5 23.884-9.165z" class="cls-7" data-name="패스 1578" transform="translate(-594.158 -39.463)"/>
                <path id="사각형_1605" d="M0 0h31.638v26.725H0z" class="cls-16" data-name="사각형 1605" transform="rotate(18.433 -19.947 42.43)"/>
                <path id="패스_1579" d="M605.865 44.586l-8.124 24.377 22.522-5.08z" class="cls-35" data-name="패스 1579" transform="translate(-597.741 -35.421)"/>
                <path id="패스_1580" d="M633.427 51.572L625.3 75.948l-14.969-17.575z" class="cls-35" data-name="패스 1580" transform="translate(-587.809 -29.911)"/>
                <path id="패스_1581" d="M635.235 74.751l-37.494-12.5 23.884-9.165z" class="cls-35" data-name="패스 1581" transform="translate(-597.741 -28.713)"/>
            </g>
            <path id="패스_1582" d="M597.741 62.255l23.884-9.165 13.61 21.661" class="cls-36" data-name="패스 1582" transform="translate(-597.741 -28.713)"/>
        </g>
    </g>
</svg>
