<svg xmlns="http://www.w3.org/2000/svg" xmlns:xlink="http://www.w3.org/1999/xlink" width="643.483" height="396.295" viewBox="0 0 643.483 396.295">
    <defs>
        <style>
            .cls-1,.cls-7{fill:#c3ecfe}.cls-1,.cls-28{opacity:.35}.cls-2{fill:#0264fb}.cls-3{fill:url(#linear-gradient)}.cls-4{fill:url(#linear-gradient-2)}.cls-5{fill:#e9e8ee}.cls-6{fill:#eaeaea}.cls-12,.cls-6,.cls-7{opacity:.2}.cls-8{fill:#fffeff}.cls-9{fill:url(#linear-gradient-3)}.cls-10{fill:url(#linear-gradient-4)}.cls-11,.cls-12{fill:#9bdfff}.cls-13{fill:url(#linear-gradient-5)}.cls-14,.cls-23{fill:#ffccb0}.cls-15,.cls-17{fill:#bdeeff}.cls-15{opacity:.7}.cls-16{fill:url(#linear-gradient-6)}.cls-18{fill:url(#linear-gradient-7)}.cls-19{fill:url(#linear-gradient-8)}.cls-20{fill:url(#linear-gradient-9)}.cls-21{fill:url(#linear-gradient-10)}.cls-22{fill:url(#linear-gradient-11)}.cls-23{opacity:.4}.cls-24{fill:#c2ebff}.cls-25{fill:#5ab5e2}.cls-26{fill:#a1d2f0;opacity:.45}.cls-27{fill:#88d2ff}.cls-28{fill:#80cfff}.cls-29{fill:#ffbe9d}.cls-30{fill:#599fd2}.cls-31{fill:#fff}.cls-32,.cls-33,.cls-35{fill:none}.cls-32,.cls-33{stroke:#599fd2;stroke-width:5.282px}.cls-32{stroke-miterlimit:10}.cls-33,.cls-35{stroke-linecap:round;stroke-linejoin:round}.cls-34{fill:#f2a181}.cls-35{stroke:#fff;stroke-width:1.056px}
        </style>
        <linearGradient id="linear-gradient" x1="1.052" x2="-.03" y1=".161" y2=".826" gradientUnits="objectBoundingBox">
            <stop offset="0" stop-color="#ccf3ff"/>
            <stop offset="1" stop-color="#fff"/>
        </linearGradient>
        <linearGradient id="linear-gradient-2" x1="1.076" x2=".371" y1="-.416" y2=".733" xlink:href="#linear-gradient"/>
        <linearGradient id="linear-gradient-3" x1="-1.192" x2="1.495" y1="1.774" y2="-.811" gradientUnits="objectBoundingBox">
            <stop offset="0" stop-color="#0063fb"/>
            <stop offset=".101" stop-color="#0566fb"/>
            <stop offset=".234" stop-color="#1671fb"/>
            <stop offset=".386" stop-color="#3283fb"/>
            <stop offset=".551" stop-color="#589cfc"/>
            <stop offset=".727" stop-color="#89bcfd"/>
            <stop offset=".909" stop-color="#c4e3fe"/>
            <stop offset="1" stop-color="#e5f8ff"/>
        </linearGradient>
        <linearGradient id="linear-gradient-4" x1="-.542" x2=".717" y1="1.685" y2=".38" gradientUnits="objectBoundingBox">
            <stop offset="0" stop-color="#5ab5e2"/>
            <stop offset="1" stop-color="#c0edff"/>
        </linearGradient>
        <linearGradient id="linear-gradient-5" x1=".27" x2=".85" y1=".801" y2=".042" xlink:href="#linear-gradient-4"/>
        <linearGradient id="linear-gradient-6" x1="-.124" x2=".601" y1=".131" y2=".56" gradientUnits="objectBoundingBox">
            <stop offset="0" stop-color="#a4e1ff"/>
            <stop offset="1" stop-color="#fff"/>
        </linearGradient>
        <linearGradient id="linear-gradient-7" x1="1.5" x2=".407" y1="-6.463" y2="1.145" xlink:href="#linear-gradient-4"/>
        <linearGradient id="linear-gradient-8" x1="1.423" x2=".33" y1="-3.165" y2="1.174" xlink:href="#linear-gradient-4"/>
        <linearGradient id="linear-gradient-9" x1="1.417" x2=".324" y1="-3.739" y2="1.313" xlink:href="#linear-gradient-4"/>
        <linearGradient id="linear-gradient-10" x1="1.332" x2=".239" y1="-1.941" y2="1.266" xlink:href="#linear-gradient-4"/>
        <linearGradient id="linear-gradient-11" x1="-.056" x2="1.098" y1="1.068" y2="-.11" gradientUnits="objectBoundingBox">
            <stop offset="0" stop-color="#ffccb0"/>
            <stop offset=".998" stop-color="#57c6f2"/>
        </linearGradient>
    </defs>
    <g id="그룹_966" data-name="그룹 966" transform="translate(-57.773 -78.227)">
        <path id="패스_1323" d="M78.631 369.956c9.005-32.3-19.62-33.548-20.251-75.172-.258-17.024 9.069-34.362 31.508-42.313 11.028-3.909 22.02-6.6 31.833-12.81 22.36-14.162 21.957-41.109 28.057-64.082 13.4-50.455 64.953-90.539 117.144-89.236 37.621.939 71.635 2.093 105.935 34.026 23.468 21.85 38.721 48.735 60.51 71.262 23.074 23.855 51.192 35.3 82.763 42.964 29.861 7.248 62.343 15.873 85.2 37.608 21.478 20.426 18.348 41.788 9.138 66.868-10.155 27.656 11.865 46.472 34.824 57.241 19.332 9.069 45.065 8.279 54.04 29.97 9.732 23.52-19.174 23.923-46.053 23.923s-374.887-2.068-472.154.808c-26.181.775-109.707 7.9-121.523-24.731-8.046-22.211 12.74-33.766 19.029-56.326z" class="cls-1" data-name="패스 1323" transform="translate(0 8.454)"/>
        <g id="그룹_958" data-name="그룹 958" transform="translate(110.995 78.227)">
            <g id="그룹_952" data-name="그룹 952">
                <g id="그룹_906" data-name="그룹 906" transform="translate(50.366 103.43)">
                    <path id="사각형_1569" d="M8.833 0H372.99a8.833 8.833 0 0 1 8.833 8.833v237.453H0V8.833A8.833 8.833 0 0 1 8.833 0z" class="cls-2" data-name="사각형 1569" transform="translate(29.2)"/>
                    <path id="사각형_1570" d="M0 0h216.045v351.582H0z" class="cls-3" data-name="사각형 1570" transform="rotate(90 190.391 205.511)"/>
                    <path id="패스_1324" d="M473.088 136.178C401.234 208.2 336.982 280.259 265.072 352.222h-95.4L333.879 188.01q25.921-25.91 51.834-51.832zm-115.46 0h-27.063l-200.49 200.49v15.554H142l215.628-216.044zM481.657 227.4v-62.13L302.265 352.222h54.567zm-299.776-91.222l-51.806 51.806v53.088l104.894-104.894zm223.547 216.044h33.9q21.231-21.093 42.328-42.32V275.8q-38.141 38.187-76.228 76.422z" class="cls-4" data-name="패스 1324" transform="translate(-85.755 -121.057)"/>
                    <path id="패스_1325" d="M531.324 266.487H125.719a17.308 17.308 0 0 1-17.309-17.309h440.221a17.308 17.308 0 0 1-17.307 17.309z" class="cls-5" data-name="패스 1325" transform="translate(-108.41 -2.891)"/>
                    <path id="패스_1326" d="M204.589 253.431h63.168a4.254 4.254 0 0 0 4.255-4.253h-71.676a4.254 4.254 0 0 0 4.253 4.253z" class="cls-6" data-name="패스 1326" transform="translate(-12.282 -2.891)"/>
                </g>
                <g id="그룹_908" data-name="그룹 908" transform="translate(248.963 171.774)">
                    <path id="사각형_1571" d="M4.461 0h114.578a4.461 4.461 0 0 1 4.461 4.461v114.578a4.46 4.46 0 0 1-4.46 4.46H4.461A4.461 4.461 0 0 1 0 119.039V4.461A4.461 4.461 0 0 1 4.461 0z" class="cls-7" data-name="사각형 1571" transform="translate(0 3.614)"/>
                    <path id="사각형_1572" d="M4.461 0h114.578a4.461 4.461 0 0 1 4.461 4.461v114.578a4.46 4.46 0 0 1-4.46 4.46H4.46a4.46 4.46 0 0 1-4.46-4.46V4.461A4.461 4.461 0 0 1 4.461 0z" class="cls-8" data-name="사각형 1572" transform="translate(2.789)"/>
                    <g id="그룹_907" data-name="그룹 907" transform="translate(23.733 20.973)">
                        <path id="패스_1327" d="M237.582 172.447a40.6 40.6 0 0 1 26.9 11.159l-26.9 26.9z" class="cls-9" data-name="패스 1327" transform="translate(-195.663 -172.447)"/>
                        <path id="패스_1328" d="M257.9 254a40.784 40.784 0 0 1-1.113-81.554V213.2a1.092 1.092 0 0 0 .168.554.912.912 0 0 0 .057.1c.02.029.031.061.053.088l27.016 30.518A40.6 40.6 0 0 1 257.9 254z" class="cls-10" data-name="패스 1328" transform="translate(-217.091 -172.447)"/>
                        <path id="패스_1329" d="M237.785 206.734l28.061-28.063a40.607 40.607 0 0 1-1.759 57.773z" class="cls-11" data-name="패스 1329" transform="translate(-195.451 -165.938)"/>
                    </g>
                </g>
                <g id="그룹_919" data-name="그룹 919" transform="translate(21.97 71.905)">
                    <path id="패스_1330" d="M271.937 264.983a5.062 5.062 0 0 0 5.063-5.061V128.786H135.914a13.23 13.23 0 0 0-13.23 13.232v122.965z" class="cls-12" data-name="패스 1330" transform="translate(-65.087 -97.261)"/>
                    <rect id="사각형_1573" width="215.706" height="165.035" class="cls-13" data-name="사각형 1573" rx="3.379"/>
                    <g id="그룹_910" data-name="그룹 910" transform="translate(150.358 97.99)">
                        <g id="그룹_909" data-name="그룹 909">
                            <path id="패스_1331" d="M182.763 164.651h-13.047a1.688 1.688 0 0 1 0-3.375h13.048a1.688 1.688 0 1 1 0 3.375z" class="cls-8" data-name="패스 1331" transform="translate(-168.028 -161.276)"/>
                        </g>
                    </g>
                    <g id="그룹_912" data-name="그룹 912" transform="translate(168.372 98.012)">
                        <g id="그룹_911" data-name="그룹 911">
                            <path id="패스_1332" d="M178.52 164.64a1.685 1.685 0 0 1-1.2-.507 1.631 1.631 0 0 1-.489-1.178 1.175 1.175 0 0 1 .033-.338 2.118 2.118 0 0 1 .086-.3 1.975 1.975 0 0 1 .37-.558 1.771 1.771 0 0 1 2.4 0l.2.254a1.28 1.28 0 0 1 .151.3 1.05 1.05 0 0 1 .1.3 2.326 2.326 0 0 1 .033.338 1.7 1.7 0 0 1-1.688 1.686z" class="cls-8" data-name="패스 1332" transform="translate(-176.834 -161.287)"/>
                        </g>
                    </g>
                    <g id="그룹_914" data-name="그룹 914" transform="translate(173.583 97.99)">
                        <g id="그룹_913" data-name="그룹 913">
                            <path id="패스_1333" d="M196.7 164.651h-15.633a1.688 1.688 0 0 1 0-3.375H196.7a1.688 1.688 0 0 1 0 3.375z" class="cls-8" data-name="패스 1333" transform="translate(-179.381 -161.276)"/>
                        </g>
                    </g>
                    <g id="그룹_916" data-name="그룹 916" transform="translate(150.358 106.428)">
                        <g id="그룹_915" data-name="그룹 915">
                            <path id="패스_1334" d="M196.662 168.774h-26.946a1.687 1.687 0 1 1 0-3.373h26.946a1.687 1.687 0 0 1 0 3.373z" class="cls-8" data-name="패스 1334" transform="translate(-168.028 -165.401)"/>
                        </g>
                    </g>
                    <g id="그룹_918" data-name="그룹 918" transform="translate(183.011 106.428)">
                        <g id="그룹_917" data-name="그룹 917">
                            <path id="패스_1335" d="M191.884 168.774h-6.207a1.687 1.687 0 1 1 0-3.373h6.207a1.687 1.687 0 0 1 0 3.373z" class="cls-8" data-name="패스 1335" transform="translate(-183.99 -165.401)"/>
                        </g>
                    </g>
                    <path id="패스_1336" d="M265.339 126.017a10.774 10.774 0 0 0-10.742 12.3l-18.739 9.142a10.839 10.839 0 0 0-16.638 13.79l-24.931 33.456a10.7 10.7 0 0 0-8.113.52l-22.947-23.792a10.851 10.851 0 1 0-19.2 0l-22.947 23.79a10.846 10.846 0 1 0 4.91 4.724l22.947-23.79a10.7 10.7 0 0 0 9.38 0l22.949 23.792a10.851 10.851 0 1 0 18.479-1.172l24.935-33.454a10.751 10.751 0 0 0 3.42.561 10.864 10.864 0 0 0 10.852-10.85 10.981 10.981 0 0 0-.108-1.452l18.737-9.14a10.847 10.847 0 1 0 7.755-18.426z" class="cls-2" data-name="패스 1336" transform="translate(-83.013 -100.157)"/>
                    <circle id="타원_67" cx="2.473" cy="2.473" r="2.473" class="cls-14" data-name="타원 67" transform="translate(9.155 7.385)"/>
                    <circle id="타원_68" cx="2.473" cy="2.473" r="2.473" class="cls-15" data-name="타원 68" transform="translate(18.307 7.385)"/>
                    <circle id="타원_69" cx="2.473" cy="2.473" r="2.473" class="cls-8" data-name="타원 69" transform="translate(27.458 7.385)"/>
                </g>
                <g id="그룹_927" data-name="그룹 927" transform="translate(57.823 199.466)">
                    <path id="패스_1337" d="M122.684 288.549h92.894a5.061 5.061 0 0 0 5.061-5.061V182.346a5.059 5.059 0 0 0-5.061-5.061h-92.894z" class="cls-7" data-name="패스 1337" transform="translate(-100.94 -174.107)"/>
                    <path id="패스_1338" d="M226.693 177.285H117.116a5.061 5.061 0 0 0-5.061 5.061v29.235h119.7v-29.235a5.059 5.059 0 0 0-5.062-5.061z" class="cls-7" data-name="패스 1338" transform="translate(-112.055 -174.107)"/>
                    <rect id="사각형_1574" width="119.699" height="111.264" class="cls-16" data-name="사각형 1574" rx="3.379" transform="translate(3.178)"/>
                    <g id="그룹_926" data-name="그룹 926" transform="translate(16.253 11.879)">
                        <g id="그룹_920" data-name="그룹 920" transform="translate(0 20.811)">
                            <path id="패스_1339" d="M214.021 257.211h-93.178a.842.842 0 0 1-.843-.843v-63.814a.843.843 0 0 1 1.686 0v62.971h92.335a.843.843 0 1 1 0 1.686z" class="cls-17" data-name="패스 1339" transform="translate(-120 -191.711)"/>
                        </g>
                        <path id="사각형_1575" d="M0 0h10.552v13.508H0z" class="cls-18" data-name="사각형 1575" transform="translate(8.694 64.108)"/>
                        <path id="사각형_1576" d="M0 0h10.552v23.682H0z" class="cls-19" data-name="사각형 1576" transform="translate(28.785 53.934)"/>
                        <path id="사각형_1577" d="M0 0h10.552v20.339H0z" class="cls-20" data-name="사각형 1577" transform="translate(48.876 57.276)"/>
                        <path id="사각형_1578" d="M0 0h10.552v32.038H0z" class="cls-21" data-name="사각형 1578" transform="translate(68.967 45.578)"/>
                        <path id="사각형_1579" d="M0 0h10.552v8.36H0z" class="cls-2" data-name="사각형 1579" transform="translate(8.694 55.747)"/>
                        <path id="사각형_1580" d="M0 0h10.552v14.657H0z" class="cls-2" data-name="사각형 1580" transform="translate(28.785 39.277)"/>
                        <path id="사각형_1581" d="M0 0h10.552v12.588H0z" class="cls-2" data-name="사각형 1581" transform="translate(48.876 44.688)"/>
                        <path id="사각형_1582" d="M0 0h10.552v19.829H0z" class="cls-2" data-name="사각형 1582" transform="translate(68.967 25.748)"/>
                        <path id="사각형_1583" d="M0 0h10.108v3.971H0z" class="cls-17" data-name="사각형 1583" transform="translate(.842)"/>
                        <path id="사각형_1584" d="M0 0h10.108v3.971H0z" class="cls-17" data-name="사각형 1584" transform="translate(.842 8.438)"/>
                        <g id="그룹_921" data-name="그룹 921" transform="translate(17.558 .299)">
                            <path id="패스_1340" d="M143.318 185.057h-13.047a1.687 1.687 0 1 1 0-3.373h13.048a1.687 1.687 0 1 1 0 3.373z" class="cls-17" data-name="패스 1340" transform="translate(-128.583 -181.684)"/>
                        </g>
                        <g id="그룹_922" data-name="그룹 922" transform="translate(35.573 .321)">
                            <path id="패스_1341" d="M139.075 185.048a1.685 1.685 0 0 1-1.2-.507 1.63 1.63 0 0 1-.489-1.178 1.11 1.11 0 0 1 .035-.338 2.04 2.04 0 0 1 .084-.3 2.813 2.813 0 0 1 .168-.3 3.04 3.04 0 0 1 .2-.254 1.771 1.771 0 0 1 2.4 0l.2.254a1.245 1.245 0 0 1 .151.3 1.031 1.031 0 0 1 .1.3 2.329 2.329 0 0 1 .033.338 1.7 1.7 0 0 1-1.688 1.686z" class="cls-17" data-name="패스 1341" transform="translate(-137.389 -181.695)"/>
                        </g>
                        <g id="그룹_923" data-name="그룹 923" transform="translate(40.783 .299)">
                            <path id="패스_1342" d="M157.259 185.057h-15.637a1.687 1.687 0 0 1 0-3.373h15.637a1.687 1.687 0 0 1 0 3.373z" class="cls-17" data-name="패스 1342" transform="translate(-139.936 -181.684)"/>
                        </g>
                        <g id="그룹_924" data-name="그룹 924" transform="translate(17.558 8.737)">
                            <path id="패스_1343" d="M157.217 189.182h-26.946a1.687 1.687 0 1 1 0-3.373h26.946a1.687 1.687 0 0 1 0 3.373z" class="cls-17" data-name="패스 1343" transform="translate(-128.583 -185.809)"/>
                        </g>
                        <g id="그룹_925" data-name="그룹 925" transform="translate(50.212 8.737)">
                            <path id="패스_1344" d="M152.439 189.182h-6.207a1.687 1.687 0 1 1 0-3.373h6.207a1.687 1.687 0 0 1 0 3.373z" class="cls-17" data-name="패스 1344" transform="translate(-144.545 -185.809)"/>
                        </g>
                    </g>
                </g>
                <g id="그룹_928" data-name="그룹 928" transform="translate(361.048 234.215)">
                    <rect id="사각형_1585" width="69.564" height="83.437" class="cls-7" data-name="사각형 1585" rx="2.065" transform="translate(0 4.605)"/>
                    <rect id="사각형_1586" width="69.564" height="83.437" class="cls-22" data-name="사각형 1586" rx="2.065" transform="translate(3.434)"/>
                    <path id="사각형_1587" d="M0 0h23.624v51.19H0z" class="cls-23" data-name="사각형 1587" transform="rotate(90 27.551 36.259)"/>
                    <path id="패스_1345" d="M316.775 213.052h-49.453a1.089 1.089 0 0 1-1.088-1.088 1.089 1.089 0 0 1 1.088-1.088h49.453a1.088 1.088 0 0 1 1.088 1.088 1.088 1.088 0 0 1-1.088 1.088z" class="cls-8" data-name="패스 1345" transform="translate(-254.053 -173.73)"/>
                    <path id="패스_1346" d="M298.577 215.294h-31.255a1.089 1.089 0 0 1-1.088-1.088 1.089 1.089 0 0 1 1.088-1.086h31.254a1.087 1.087 0 0 1 1.088 1.086 1.088 1.088 0 0 1-1.087 1.088z" class="cls-8" data-name="패스 1346" transform="translate(-254.053 -171.383)"/>
                    <path id="패스_1347" d="M298.365 215.294h-13.437a1.088 1.088 0 0 1-1.088-1.088 1.087 1.087 0 0 1 1.088-1.086h13.436a1.087 1.087 0 0 1 1.088 1.086 1.088 1.088 0 0 1-1.087 1.088z" class="cls-8" data-name="패스 1347" transform="translate(-235.642 -171.383)"/>
                    <path id="패스_1348" d="M307.2 217.539h-39.878a1.09 1.09 0 0 1-1.088-1.088 1.089 1.089 0 0 1 1.088-1.088H307.2a1.088 1.088 0 0 1 1.088 1.088 1.089 1.089 0 0 1-1.088 1.088z" class="cls-8" data-name="패스 1348" transform="translate(-254.053 -169.038)"/>
                    <path id="패스_1349" d="M294.226 217.539h-5.339a1.089 1.089 0 0 1-1.088-1.088 1.088 1.088 0 0 1 1.088-1.088h5.339a1.088 1.088 0 0 1 1.088 1.088 1.089 1.089 0 0 1-1.088 1.088z" class="cls-8" data-name="패스 1349" transform="translate(-231.504 -169.038)"/>
                    <path id="패스_1350" d="M277.537 219.782h-10.215a1.089 1.089 0 0 1-1.088-1.088 1.089 1.089 0 0 1 1.088-1.088h10.214a1.088 1.088 0 0 1 1.088 1.088 1.088 1.088 0 0 1-1.087 1.088z" class="cls-8" data-name="패스 1350" transform="translate(-254.053 -166.692)"/>
                    <path id="패스_1351" d="M279.848 226.512h6.585a1.087 1.087 0 0 0 1.086-1.088 1.087 1.087 0 0 0-1.086-1.088h-6.585a1.088 1.088 0 0 0-1.088 1.088 1.088 1.088 0 0 0 1.088 1.088z" class="cls-8" data-name="패스 1351" transform="translate(-240.955 -159.655)"/>
                    <path id="패스_1352" d="M267.322 226.512h21.394a1.087 1.087 0 0 0 1.086-1.088 1.087 1.087 0 0 0-1.086-1.088h-21.394a1.089 1.089 0 0 0-1.088 1.088 1.089 1.089 0 0 0 1.088 1.088z" class="cls-8" data-name="패스 1352" transform="translate(-254.053 -159.655)"/>
                    <path id="패스_1353" d="M280.456 231h5.344a1.087 1.087 0 0 0 1.086-1.088 1.087 1.087 0 0 0-1.086-1.088h-5.341a1.088 1.088 0 0 0-1.088 1.088 1.088 1.088 0 0 0 1.085 1.088z" class="cls-8" data-name="패스 1353" transform="translate(-240.319 -154.963)"/>
                    <path id="패스_1354" d="M267.322 228.754h8.895a1.088 1.088 0 0 0 1.088-1.088 1.087 1.087 0 0 0-1.088-1.086h-8.895a1.089 1.089 0 0 0-1.088 1.086 1.089 1.089 0 0 0 1.088 1.088z" class="cls-8" data-name="패스 1354" transform="translate(-254.053 -157.308)"/>
                    <path id="패스_1355" d="M273.907 224.269h-6.585a1.089 1.089 0 0 1-1.088-1.088 1.089 1.089 0 0 1 1.088-1.088h6.585A1.088 1.088 0 0 1 275 223.18a1.088 1.088 0 0 1-1.093 1.089z" class="cls-8" data-name="패스 1355" transform="translate(-254.053 -162)"/>
                    <path id="패스_1356" d="M294 224.269h-21.392a1.087 1.087 0 0 1-1.086-1.088 1.087 1.087 0 0 1 1.086-1.088H294a1.087 1.087 0 0 1 1.086 1.088 1.087 1.087 0 0 1-1.086 1.088z" class="cls-8" data-name="패스 1356" transform="translate(-248.523 -162)"/>
                    <path id="사각형_1588" d="M0 0h12.894v15.913H0z" class="cls-23" data-name="사각형 1588" transform="translate(50.917 60.123)"/>
                </g>
                <path id="패스_1357" d="M195.551 83.335a22.165 22.165 0 1 0 22.166 22.165 22.189 22.189 0 0 0-22.166-22.165zm17.98 20.134H208a31.43 31.43 0 0 0-3.578-13.731 18.121 18.121 0 0 1 9.109 13.731zM193.52 88.028v15.441h-6.354c.427-7.845 3.281-13.614 6.354-15.441zm0 19.5v15.441c-3.073-1.829-5.926-7.6-6.354-15.441zm4.063 15.441v-15.437h6.354c-.428 7.843-3.282 13.612-6.354 15.441zm0-19.5V88.028c3.073 1.827 5.926 7.6 6.354 15.441zm-10.9-13.731a31.458 31.458 0 0 0-3.58 13.731h-5.53a18.121 18.121 0 0 1 9.108-13.731zm-9.11 17.794h5.53a31.466 31.466 0 0 0 3.58 13.731 18.124 18.124 0 0 1-9.111-13.731zm26.85 13.731A31.438 31.438 0 0 0 208 107.532h5.532a18.124 18.124 0 0 1-9.11 13.73z" class="cls-24" data-name="패스 1357" transform="translate(9.902 -72.885)"/>
                <g id="그룹_929" data-name="그룹 929" transform="translate(0 282.368)">
                    <path id="패스_1358" d="M103.8 227.939a8.677 8.677 0 0 0-.158-1.624l2.371-1.369a.719.719 0 0 0 .262-.982l-2.156-3.736a.717.717 0 0 0-.982-.262l-2.373 1.369a8.684 8.684 0 0 0-2.809-1.622v-2.739a.719.719 0 0 0-.72-.718h-4.311a.718.718 0 0 0-.718.718v2.739a8.715 8.715 0 0 0-2.811 1.622l-2.371-1.371a.719.719 0 0 0-.982.264l-2.156 3.736a.719.719 0 0 0 .262.982l2.369 1.369a8.563 8.563 0 0 0 0 3.249l-2.369 1.369a.716.716 0 0 0-.262.98l2.156 3.738a.719.719 0 0 0 .982.262l2.371-1.369a8.717 8.717 0 0 0 2.811 1.622v2.734a.718.718 0 0 0 .718.718h4.314a.719.719 0 0 0 .72-.718v-2.739a8.686 8.686 0 0 0 2.809-1.622l2.373 1.369a.719.719 0 0 0 .982-.262l2.156-3.738a.716.716 0 0 0-.262-.98l-2.371-1.369a8.677 8.677 0 0 0 .155-1.62zm-8.721 4.582a4.582 4.582 0 1 1 4.582-4.582 4.583 4.583 0 0 1-4.578 4.582z" class="cls-24" data-name="패스 1358" transform="translate(-83.79 -216.256)"/>
                    <path id="패스_1359" d="M120.037 236.8v-4.914a.63.63 0 0 0-.63-.63h-1.444a.629.629 0 0 1-.591-.43 11.074 11.074 0 0 0-.464-1.123.625.625 0 0 1 .115-.722l1.021-1.021a.63.63 0 0 0 0-.89l-3.474-3.476a.632.632 0 0 0-.892 0l-1.021 1.021a.628.628 0 0 1-.722.117 10.044 10.044 0 0 0-1.123-.464.633.633 0 0 1-.43-.593v-1.444a.63.63 0 0 0-.63-.63h-4.914a.629.629 0 0 0-.628.63v1.444a.632.632 0 0 1-.432.593 10.375 10.375 0 0 0-1.123.464.625.625 0 0 1-.72-.117l-1.023-1.021a.63.63 0 0 0-.89 0l-3.474 3.476a.63.63 0 0 0 0 .89l1.021 1.021a.631.631 0 0 1 .115.722 10.615 10.615 0 0 0-.464 1.123.629.629 0 0 1-.591.43h-1.447a.629.629 0 0 0-.628.63v4.914a.629.629 0 0 0 .628.63h1.446a.626.626 0 0 1 .591.43 10.794 10.794 0 0 0 .464 1.123.628.628 0 0 1-.115.72l-1.021 1.023a.63.63 0 0 0 0 .89l3.474 3.474a.626.626 0 0 0 .89 0l1.023-1.021a.628.628 0 0 1 .72-.115 10.363 10.363 0 0 0 1.123.464.63.63 0 0 1 .432.591v1.446a.629.629 0 0 0 .628.63h4.914a.63.63 0 0 0 .63-.63v-1.446a.631.631 0 0 1 .43-.591 10.032 10.032 0 0 0 1.123-.464.631.631 0 0 1 .722.115l1.021 1.021a.628.628 0 0 0 .892 0l3.474-3.474a.63.63 0 0 0 0-.89l-1.021-1.023a.621.621 0 0 1-.115-.72 11.268 11.268 0 0 0 .464-1.123.626.626 0 0 1 .591-.43h1.444a.63.63 0 0 0 .631-.63zm-11.579 2.5a5.094 5.094 0 0 1-6.117-6.117 5.043 5.043 0 0 1 3.791-3.789 5.094 5.094 0 0 1 6.117 6.115 5.043 5.043 0 0 1-3.79 3.791z" class="cls-24" data-name="패스 1359" transform="translate(-72.533 -210.666)"/>
                </g>
                <g id="그룹_933" data-name="그룹 933" transform="translate(439.581 60.394)">
                    <g id="그룹_930" data-name="그룹 930">
                        <path id="패스_1360" d="M304.186 130.659v-1.242a7.373 7.373 0 0 1-3.289-1.27 5.992 5.992 0 0 1-2.036-2.332 1.785 1.785 0 0 1-.192-.792 1.842 1.842 0 0 1 .074-.479 1.474 1.474 0 0 1 .7-.779 1.352 1.352 0 0 1 .659-.194 1.929 1.929 0 0 1 1.375.9 4.494 4.494 0 0 0 4.008 2.064 4.23 4.23 0 0 0 2.453-.718 2.421 2.421 0 0 0 1.135-2.033 2.063 2.063 0 0 0-1.15-1.884 7.646 7.646 0 0 0-2.019-.7l-.389-.1a10.5 10.5 0 0 1-4.548-1.808 4.526 4.526 0 0 1-1.853-3.725 5.117 5.117 0 0 1 1.5-3.6 6.451 6.451 0 0 1 3.574-1.808v-1.121a1.271 1.271 0 0 1 .389-.912 1.228 1.228 0 0 1 .912-.36 1.175 1.175 0 0 1 .867.36 1.3 1.3 0 0 1 .36.912v1.121a6.074 6.074 0 0 1 4.4 2.692 1.16 1.16 0 0 1 .164.567 2.31 2.31 0 0 1-.031.284 1.567 1.567 0 0 1-.4.7 1.407 1.407 0 0 1-.972.358 1.387 1.387 0 0 1-.884-.268 6.8 6.8 0 0 0-1.569-1.107 4.946 4.946 0 0 0-1.974-.358 4.025 4.025 0 0 0-2.332.671 2.16 2.16 0 0 0-1 1.841 1.966 1.966 0 0 0 1.3 1.823 13.02 13.02 0 0 0 3.036.884 10.124 10.124 0 0 1 3.858 1.718 4.489 4.489 0 0 1 1.735 3.664 5.5 5.5 0 0 1-1.512 3.8 6.683 6.683 0 0 1-3.811 1.974v1.27a1.235 1.235 0 0 1-1.244 1.27 1.263 1.263 0 0 1-1.294-1.283z" class="cls-24" data-name="패스 1360" transform="translate(-298.669 -107.749)"/>
                    </g>
                    <g id="그룹_931" data-name="그룹 931" transform="translate(18.017)">
                        <path id="패스_1361" d="M312.993 130.659v-1.242a7.374 7.374 0 0 1-3.29-1.27 5.992 5.992 0 0 1-2.035-2.332 1.785 1.785 0 0 1-.192-.792 1.841 1.841 0 0 1 .074-.479 1.475 1.475 0 0 1 .7-.779 1.353 1.353 0 0 1 .659-.194 1.929 1.929 0 0 1 1.375.9 4.494 4.494 0 0 0 4.008 2.064 4.23 4.23 0 0 0 2.453-.718 2.421 2.421 0 0 0 1.135-2.033 2.063 2.063 0 0 0-1.15-1.884 7.646 7.646 0 0 0-2.019-.7l-.389-.1a10.478 10.478 0 0 1-4.546-1.808 4.522 4.522 0 0 1-1.855-3.725 5.117 5.117 0 0 1 1.5-3.6 6.451 6.451 0 0 1 3.574-1.808v-1.121a1.271 1.271 0 0 1 .389-.912 1.228 1.228 0 0 1 .912-.36 1.175 1.175 0 0 1 .867.36 1.3 1.3 0 0 1 .36.912v1.121a6.074 6.074 0 0 1 4.4 2.692 1.159 1.159 0 0 1 .164.567 2.289 2.289 0 0 1-.031.284 1.566 1.566 0 0 1-.4.7 1.407 1.407 0 0 1-.972.358 1.387 1.387 0 0 1-.884-.268 6.807 6.807 0 0 0-1.569-1.107 4.947 4.947 0 0 0-1.974-.358 4.025 4.025 0 0 0-2.332.671 2.16 2.16 0 0 0-1 1.841 1.966 1.966 0 0 0 1.3 1.823 13.019 13.019 0 0 0 3.036.884 10.125 10.125 0 0 1 3.858 1.718 4.489 4.489 0 0 1 1.735 3.664 5.5 5.5 0 0 1-1.512 3.8 6.683 6.683 0 0 1-3.811 1.974v1.27a1.235 1.235 0 0 1-1.244 1.27 1.263 1.263 0 0 1-1.294-1.283z" class="cls-24" data-name="패스 1361" transform="translate(-307.476 -107.749)"/>
                    </g>
                    <g id="그룹_932" data-name="그룹 932" transform="translate(36.033)">
                        <path id="패스_1362" d="M321.8 130.659v-1.242a7.373 7.373 0 0 1-3.289-1.27 5.992 5.992 0 0 1-2.036-2.332 1.786 1.786 0 0 1-.192-.792 1.841 1.841 0 0 1 .074-.479 1.475 1.475 0 0 1 .7-.779 1.352 1.352 0 0 1 .659-.194 1.929 1.929 0 0 1 1.375.9 4.494 4.494 0 0 0 4.008 2.064 4.23 4.23 0 0 0 2.453-.718 2.421 2.421 0 0 0 1.135-2.033 2.063 2.063 0 0 0-1.15-1.884 7.674 7.674 0 0 0-2.019-.7l-.389-.1a10.5 10.5 0 0 1-4.548-1.808 4.526 4.526 0 0 1-1.853-3.725 5.117 5.117 0 0 1 1.5-3.6 6.45 6.45 0 0 1 3.574-1.808v-1.121a1.27 1.27 0 0 1 .389-.912 1.228 1.228 0 0 1 .912-.36 1.175 1.175 0 0 1 .867.36 1.3 1.3 0 0 1 .36.912v1.121a6.074 6.074 0 0 1 4.4 2.692 1.159 1.159 0 0 1 .164.567 2.305 2.305 0 0 1-.031.284 1.566 1.566 0 0 1-.4.7 1.407 1.407 0 0 1-.972.358 1.387 1.387 0 0 1-.884-.268 6.8 6.8 0 0 0-1.569-1.107 4.946 4.946 0 0 0-1.974-.358 4.025 4.025 0 0 0-2.332.671 2.16 2.16 0 0 0-1 1.841 1.966 1.966 0 0 0 1.3 1.823 13.019 13.019 0 0 0 3.036.884 10.125 10.125 0 0 1 3.858 1.718 4.489 4.489 0 0 1 1.735 3.664 5.5 5.5 0 0 1-1.512 3.8 6.683 6.683 0 0 1-3.811 1.974v1.27a1.235 1.235 0 0 1-1.244 1.27 1.263 1.263 0 0 1-1.294-1.283z" class="cls-24" data-name="패스 1362" transform="translate(-316.283 -107.749)"/>
                    </g>
                </g>
                <path id="패스_1363" d="M158.546 94.989h-36.36a1.1 1.1 0 0 0-1.1 1.1v20.392a1.1 1.1 0 0 0 1.1 1.1h36.36a1.1 1.1 0 0 0 1.1-1.1V96.088a1.1 1.1 0 0 0-1.1-1.099zM129.082 110.1l-4.46 4.462a.548.548 0 0 1-.389.16.555.555 0 0 1-.389-.16.549.549 0 0 1 0-.777l4.46-4.462a.55.55 0 0 1 .777.777zm22.568-.777a.549.549 0 0 1 .777 0l4.46 4.462a.55.55 0 0 1-.777.777l-4.46-4.462a.549.549 0 0 1 0-.775zm-28.66-12.3a.548.548 0 0 1 .743-.227l16.634 8.866L157 96.8a.549.549 0 0 1 .516.97l-16.891 9a.556.556 0 0 1-.26.065.548.548 0 0 1-.258-.065l-16.893-9a.548.548 0 0 1-.224-.748z" class="cls-24" data-name="패스 1363" transform="translate(-44.788 -60.699)"/>
                <g id="그룹_951" data-name="그룹 951" transform="translate(29.389)">
                    <g id="그룹_934" data-name="그룹 934" transform="translate(410.865 33.897)">
                        <path id="패스_1364" d="M303.206 103.215a4.209 4.209 0 1 1 4.21-4.21 4.214 4.214 0 0 1-4.21 4.21zm0-6.921a2.712 2.712 0 1 0 2.713 2.711 2.714 2.714 0 0 0-2.713-2.711z" class="cls-25" data-name="패스 1364" transform="translate(-298.998 -94.797)"/>
                    </g>
                    <g id="그룹_935" data-name="그룹 935" transform="translate(113.535 41.377)">
                        <path id="패스_1365" d="M157.865 106.871a4.209 4.209 0 1 1 4.208-4.21 4.214 4.214 0 0 1-4.208 4.21zm0-6.921a2.712 2.712 0 1 0 2.711 2.711 2.714 2.714 0 0 0-2.711-2.711z" class="cls-25" data-name="패스 1365" transform="translate(-153.655 -98.453)"/>
                    </g>
                    <g id="그룹_936" data-name="그룹 936" transform="translate(452.732 110.88)">
                        <path id="패스_1366" d="M323.674 140.848a4.21 4.21 0 1 1 4.21-4.21 4.214 4.214 0 0 1-4.21 4.21zm0-6.923a2.713 2.713 0 1 0 2.713 2.713 2.714 2.714 0 0 0-2.713-2.713z" class="cls-25" data-name="패스 1366" transform="translate(-319.464 -132.428)"/>
                    </g>
                    <g id="그룹_937" data-name="그룹 937" transform="translate(0 258.118)">
                        <path id="패스_1367" d="M102.366 212.82a4.209 4.209 0 1 1 4.208-4.208 4.214 4.214 0 0 1-4.208 4.208zm0-6.921a2.712 2.712 0 1 0 2.711 2.713 2.715 2.715 0 0 0-2.711-2.712z" class="cls-25" data-name="패스 1367" transform="translate(-98.156 -204.402)"/>
                    </g>
                    <g id="그룹_938" data-name="그룹 938" transform="translate(500.531 227.845)">
                        <path id="패스_1368" d="M347.037 198.024a4.21 4.21 0 1 1 4.21-4.21 4.214 4.214 0 0 1-4.21 4.21zm0-6.923a2.713 2.713 0 1 0 2.713 2.713 2.716 2.716 0 0 0-2.713-2.714z" class="cls-25" data-name="패스 1368" transform="translate(-342.829 -189.604)"/>
                    </g>
                    <g id="그룹_941" data-name="그룹 941" transform="translate(125.648 42.148)">
                        <g id="그룹_939" data-name="그룹 939" transform="translate(2.784)">
                            <path id="패스_1369" d="M161.686 105.9a.749.749 0 0 1-.749-.749v-5.57a.749.749 0 0 1 1.5 0v5.57a.748.748 0 0 1-.751.749z" class="cls-25" data-name="패스 1369" transform="translate(-160.937 -98.83)"/>
                        </g>
                        <g id="그룹_940" data-name="그룹 940" transform="translate(0 2.784)">
                            <path id="패스_1370" d="M165.9 101.691h-5.57a.75.75 0 0 1 0-1.5h5.57a.75.75 0 0 1 0 1.5z" class="cls-25" data-name="패스 1370" transform="translate(-159.576 -100.191)"/>
                        </g>
                    </g>
                    <g id="그룹_944" data-name="그룹 944" transform="translate(24.9 328.093)">
                        <g id="그룹_942" data-name="그룹 942" transform="translate(2.784)">
                            <path id="패스_1371" d="M112.438 245.676a.749.749 0 0 1-.749-.749v-5.57a.749.749 0 0 1 1.5 0v5.57a.749.749 0 0 1-.751.749z" class="cls-25" data-name="패스 1371" transform="translate(-111.689 -238.608)"/>
                        </g>
                        <g id="그룹_943" data-name="그룹 943" transform="translate(0 2.786)">
                            <path id="패스_1372" d="M116.645 241.467h-5.568a.749.749 0 1 1 0-1.5h5.568a.749.749 0 1 1 0 1.5z" class="cls-25" data-name="패스 1372" transform="translate(-110.328 -239.97)"/>
                        </g>
                    </g>
                    <g id="그룹_947" data-name="그룹 947" transform="translate(453.41 99.896)">
                        <g id="그룹_945" data-name="그룹 945" transform="translate(2.784)">
                            <path id="패스_1373" d="M321.9 134.127a.749.749 0 0 1-.749-.749v-5.57a.749.749 0 1 1 1.5 0v5.57a.748.748 0 0 1-.751.749z" class="cls-25" data-name="패스 1373" transform="translate(-321.156 -127.059)"/>
                        </g>
                        <g id="그룹_946" data-name="그룹 946" transform="translate(0 2.784)">
                            <path id="패스_1374" d="M326.114 129.919h-5.57a.75.75 0 0 1 0-1.5h5.57a.75.75 0 0 1 0 1.5z" class="cls-25" data-name="패스 1374" transform="translate(-319.795 -128.42)"/>
                        </g>
                    </g>
                    <g id="그룹_950" data-name="그룹 950" transform="translate(216.039)">
                        <g id="그룹_948" data-name="그룹 948" transform="translate(2.784)">
                            <path id="패스_1375" d="M205.874 85.295a.75.75 0 0 1-.751-.749v-5.57a.75.75 0 0 1 1.5 0v5.57a.749.749 0 0 1-.749.749z" class="cls-25" data-name="패스 1375" transform="translate(-205.123 -78.227)"/>
                        </g>
                        <g id="그룹_949" data-name="그룹 949" transform="translate(0 2.786)">
                            <path id="패스_1376" d="M210.081 81.086h-5.57a.749.749 0 1 1 0-1.5h5.57a.749.749 0 0 1 0 1.5z" class="cls-25" data-name="패스 1376" transform="translate(-203.762 -79.589)"/>
                        </g>
                    </g>
                </g>
            </g>
            <path id="패스_1377" d="M274.856 218.186a37.365 37.365 0 0 0 21.476 6.792 37.968 37.968 0 0 0 6.655-.589 37.461 37.461 0 0 0 14.827-6.125l14.015 16.93a5.682 5.682 0 0 0 .158 1.7 4.762 4.762 0 0 0 2.942 3.633c.409.119.892.192 1.117.554a1.9 1.9 0 0 1 .182.7 2.5 2.5 0 0 0 2.665 1.952v-.006l10.407 12.567a1.971 1.971 0 0 0 .8 1.643c.3.2.708.383.745.745a1.4 1.4 0 0 1-.129.536 1.423 1.423 0 0 0 2.07 1.657 2.4 2.4 0 0 0 2.213 2.3l10.715 12.941a4.176 4.176 0 0 0 3.224 1.516 3.746 3.746 0 0 0 .4-.035v-10.226l-7.637-9.224c.08-.1.155-.211.239-.311a7.36 7.36 0 0 1 1.356-1.213l.2.473s2.33-.824 5.841-2.074v-7.71c-4.374 2.694-7.917 4.9-7.917 4.9l.049.119c-.1.031-.211.061-.3.088a32.063 32.063 0 0 1-4.153.076l-10.446-12.618c1.937-.54 4.5-1.289 7.24-2.171l.172-.057q.522-.169 1.049-.344l.385-.129c.289-.1.575-.192.861-.29l.438-.151.806-.282c.16-.057.317-.115.477-.17l.771-.28.475-.176c.264-.1.524-.2.783-.3l.436-.168c.274-.106.544-.215.812-.323.129-.051.26-.1.389-.155.354-.143.7-.288 1.041-.436l.106-.045q.568-.242 1.109-.491c.1-.045.19-.09.286-.133.256-.121.509-.239.755-.36.125-.061.243-.121.364-.182.209-.1.415-.211.616-.315.127-.067.25-.135.372-.2a25.312 25.312 0 0 0 .888-.509 19.7 19.7 0 0 0 .79-.507c.151-.1.293-.2.432-.309.088-.063.178-.129.26-.192.145-.115.276-.227.4-.34.059-.053.127-.106.184-.16l.063-.068v-41.409c-.211.2-.419.374-.632.6-4.208 4.521-7.176 33.492-7.285 34.566-.084.808-12.039 7.725-18 11.127a3.366 3.366 0 0 0-.839-2.224 5.831 5.831 0 0 0-2.346-1.459 1.083 1.083 0 0 0-.376-.076l-15.736-19.007a38.076 38.076 0 0 0 3.15-3.873 37.641 37.641 0 1 0-52.411 9.3zm-2.443-47.622A29.078 29.078 0 0 1 291.3 158.5a29.607 29.607 0 0 1 5.178-.456 29.278 29.278 0 1 1-24.06 12.516z" class="cls-26" data-name="패스 1377" transform="translate(99.203 -3.509)"/>
            <g id="그룹_957" data-name="그룹 957" transform="translate(342.281 126.009)">
                <path id="패스_1378" d="M330.073 167.322c-4.582 4.922-7.813 36.465-7.933 37.637s-23.2 14.154-23.2 14.154l3.249 3.717s24.591-6.194 29.014-11.542c3.752-4.535 12.422-41.62 12.422-41.62s-5.948-10.515-13.552-2.346z" class="cls-27" data-name="패스 1378" transform="translate(-201.083 -114.319)"/>
                <ellipse id="타원_70" cx="68.741" cy="4.706" class="cls-28" data-name="타원 70" rx="68.741" ry="4.706" transform="translate(96.072 260.872)"/>
                <g id="그룹_953" data-name="그룹 953" transform="translate(194.104 236.276)">
                    <path id="패스_1379" d="M348.619 259.579a42.721 42.721 0 0 0 2.827 4.771c.947 1.146 5.057-1.448 5.086-2.387s-3.652-6.64-3.652-6.64" class="cls-29" data-name="패스 1379" transform="translate(-343.24 -255.322)"/>
                    <path id="패스_1380" d="M361.1 259.264c.888 1.26 2.349 3.76 2.349 3.76l-3.629 3.312-.949-.407a8.138 8.138 0 0 1-1.7 2.684 18.718 18.718 0 0 1-3.754 2.559c-3.617 1.686-6.645 1.941-7.058 1.508-1.727-1.812 3.054-4.093 3.952-4.689a6.7 6.7 0 0 0 3.007-6.256c-.194-1.193-.55-1.293.1-1.477a1.661 1.661 0 0 1 1.262.127 2.95 2.95 0 0 0 3.322-.352 3.308 3.308 0 0 0 1.066-1.768 2.051 2.051 0 0 1 2.032.999z" class="cls-30" data-name="패스 1380" transform="translate(-345.99 -252.267)"/>
                </g>
                <g id="그룹_954" data-name="그룹 954" transform="translate(117.994 249.974)">
                    <path id="패스_1381" d="M315.973 265.013a10.6 10.6 0 0 0-.8 3.7c.115 1.469 5 1.579 5.566.816s.851-7.512.851-7.512" class="cls-29" data-name="패스 1381" transform="translate(-302.111 -262.018)"/>
                    <path id="패스_1382" d="M328.708 268.092a29.929 29.929 0 0 1-.446 4.028h-5.628l-.276-.9a9.127 9.127 0 0 1-3.259.9h-4.75c-3.478 0-5.454-.426-5.542-1.011-.366-2.453 3.789-2.34 4.869-2.34 3.107 0 6.471-1.393 7.2-2.9.532-1.1.3-1.375.939-1.168a1.6 1.6 0 0 1 .966.8 2.88 2.88 0 0 0 2.934 1.534 3.459 3.459 0 0 0 1.9-.88 1.967 1.967 0 0 1 1.093 1.937z" class="cls-30" data-name="패스 1382" transform="translate(-308.785 -259.283)"/>
                </g>
                <path id="패스_1383" d="M346.627 231.427c-.033.207-4.595-5.022-4.644-4.8-1.813 9.146-10.253 39.734-13.054 47.759v.014a8.452 8.452 0 0 1-4.374 4c-4.12 1.074-10.7-.336-11.225-8.218-.065-.869.133-1.819.033-2.844-1.174-12.138 10.437-65.668 10.737-69.08.28-3.412 6.994-.949 8.874-1.581 9.375-3.112 16.11 21.956 13.653 34.75z" class="cls-2" data-name="패스 1383" transform="translate(-186.09 -80.66)"/>
                <path id="패스_1384" d="M329.736 246.7c-1.9-5.7.986-12.372.986-12.372s-16.19-12.448-17.014-4.85c-.082.6-.683 5.748-.683 8.653.006 10.39 3.619 43.3 3.355 63.388v1.311a40.275 40.275 0 0 0 7.448.489c.215 0 .446 0 .677-.016 1.352-12.512 4.28-29.528 5.669-46.646a39.261 39.261 0 0 0-.438-9.957z" class="cls-2" data-name="패스 1384" transform="translate(-186.357 -48.642)"/>
                <path id="패스_1385" d="M365.251 277.876c-3.238-4.026-6.659-5.828-7.671-8.895-2.353-7.129-1.714-36.048-1.939-44.075.669-1.643 6.906-18.057-5.753-30.152 0 0-11.382 4.885-20.5 5.474a46.942 46.942 0 0 1-10.822-.25s6.779 10.226 7.174 14.758c.673 7.7 15.069 54.205 16.167 56.756a30.352 30.352 0 0 0 6.178 9.277c6.381 8.306 21.316 25.768 32.641 42.493l.767 1.082a31.248 31.248 0 0 0 6.509-3.686c-6.102-11.135-12.481-30.025-22.751-42.782z" class="cls-2" data-name="패스 1385" transform="translate(-180.561 -82.382)"/>
                <path id="패스_1386" d="M314.52 168.979c2.273-2.608 12.029-6.638 21.672-6.334 6.645.209 27.764 2.383 29.788 6.829 1.033 2.273.933 23.841-.581 31.864-1.137 6.033-4.574 21.535-4.574 25.142s1.937 5.153 1.033 6.2c-2.025 2.346-17.159 3.4-23.661 3.4-5.785 0-15.633-1.542-16.135-3.4-.741-2.751 1.129-2.649 1.383-5.534s1.618-21.905-.078-24.671c-2.688-4.388-6.773-16.824-6.98-20.132s-4.14-10.756-1.867-13.364z" class="cls-27" data-name="패스 1386" transform="translate(-185.53 -115.976)"/>
                <path id="패스_1387" d="M323.155 161.215s-.065 8.025-.389 8.349a12.707 12.707 0 0 1-1.909 1.074s1.129 6.974 2.878 6.456 13.287-6.348 13.287-6.348-1.637-.665-1.637-1.311 1.553-13.268 1.553-13.268" class="cls-29" data-name="패스 1387" transform="translate(-178.166 -122.735)"/>
                <path id="패스_1388" d="M328.752 146.174a4.882 4.882 0 0 0-4.979-.331 7.263 7.263 0 0 0-3.4 3.848 5.723 5.723 0 0 0-.006 4.9 3.007 3.007 0 0 0-1.884 2.862 7.2 7.2 0 0 0 1.483 3.684 3.353 3.353 0 0 0 3.326 1.385 3.766 3.766 0 0 0 2.119-1.483 9.712 9.712 0 0 0 1.193-2.346 64.709 64.709 0 0 0 3.228-11.794" class="cls-2" data-name="패스 1388" transform="translate(-180.647 -134.078)"/>
                <path id="패스_1389" d="M332.962 144.385c-1.682.458-6.115-.46-7.338 1.375s-2.293 6.268-2.751 7.491c-.912 2.434-1.508 5.037-2.171 7.547-.865 3.271-3.087 9.433.113 12.168a6.5 6.5 0 0 0 3.267 1.084c1.514.274 3.021.583 4.537.855 2.349.421 4.949.912 7.281.155 3.116-1.011 4.824-5.294 5.624-8.2l4.586-16.664z" class="cls-29" data-name="패스 1389" transform="translate(-179.96 -135.054)"/>
                <path id="패스_1390" d="M329.266 159.248a1.416 1.416 0 0 0 2.289 1.354 4.889 4.889 0 0 0 2.627-4.114c.137-1.976-1.125-3.791-2.837-3.083a2.634 2.634 0 0 0-1.377 2.741" class="cls-29" data-name="패스 1390" transform="translate(-169.38 -125.784)"/>
                <path id="패스_1391" d="M343.978 163.216c-.542 1.655-1.958 5.415-3.463 5.051s.612-6.254 1.915-8.617c-1.894-.006-4.228-.3-4.91-2.064-.153-.4-.274-.91-.689-1-.342-.076-.644.2-.937.391-1.328.861-3.14.018-4.2-1.158-.243-.27-.526-.583-.888-.558a1.25 1.25 0 0 0-.593.288c-2.183 1.551-7.978 1.473-7.96-1.252-1.909.97-3.144-1.393-3.03-3.011s1.324-4.316 3.954-4.249c-.131-1.988 1.43-3.234 3.011-4.447a9.89 9.89 0 0 1 5.587-1.843c3.142-.143 6.718 1.154 7.792 4.112a.987.987 0 0 0 .35.567.971.971 0 0 0 .734-.006 7.61 7.61 0 0 1 6.974 1.383 5.291 5.291 0 0 1 1.041 6.7c1.841.436 2.829 2.625 2.541 4.494a9.764 9.764 0 0 1-2.79 4.848c1.995.638 2.792 3.367 1.782 5.2a5.857 5.857 0 0 1-5.683 2.526c.479-1.892-.344-4.069-2.173-4.409" class="cls-2" data-name="패스 1391" transform="translate(-179.882 -138.871)"/>
                <path id="패스_1392" d="M322.994 167.332s-.636 29.536-1.839 47.5l4.343 5.992 2.987-7.5a228.459 228.459 0 0 0-2.825-45.785z" class="cls-30" data-name="패스 1392" transform="translate(-177.855 -111.058)"/>
                <path id="패스_1393" d="M321.565 167.016l.1.407a8.23 8.23 0 0 0 .9 2.187l2.666.207s1.813-.949 2.052-1.97-2.974-2.692-2.974-2.692l-.391.153a5.786 5.786 0 0 0-2.32 1.669z" class="cls-30" data-name="패스 1393" transform="translate(-177.427 -113.336)"/>
                <path id="패스_1394" d="M333.54 161.287a16.577 16.577 0 0 1 3.633 3.67 34.15 34.15 0 0 1-8.858 11 15.4 15.4 0 0 0-5.409-6.761s9.678-1.996 10.634-7.909z" class="cls-31" data-name="패스 1394" transform="translate(-176.024 -117.38)"/>
                <path id="패스_1395" d="M325.692 168.927a11.459 11.459 0 0 0-5.3 5.039 25.346 25.346 0 0 1 .72-9.351s1.792-3.011 2.547-3.069c-.313 3.559 2.033 7.381 2.033 7.381z" class="cls-31" data-name="패스 1395" transform="translate(-178.81 -117.109)"/>
                <path id="패스_1396" d="M323.2 265.131a13.376 13.376 0 0 1-.642-4.11c.033-.067.08-.145.1-.209v-.012c1.884-5.4 6.317-21 9.57-33.419l-5.045-17.986s-3.06 36.608-4.065 39.237-4.124 11.082-3.821 12.9 2.277 5.161 1.974 8.046-.26 28.746-.26 28.885c1-7.477 1.978-15.414 2.625-23.378a39.261 39.261 0 0 0-.436-9.954z" class="cls-2" data-name="패스 1396" transform="translate(-179.819 -67.073)"/>
                <g id="그룹_955" data-name="그룹 955">
                    <circle id="타원_71" cx="36.427" cy="36.427" r="36.427" class="cls-32" data-name="타원 71" transform="rotate(-32.432 67.173 19.536)"/>
                    <path id="선_80" d="M0 0l54.249 65.526" class="cls-33" data-name="선 80" transform="translate(74.991 78.519)"/>
                </g>
                <g id="그룹_956" data-name="그룹 956" transform="translate(107.861 52.937)">
                    <path id="패스_1397" d="M321.295 198.367s-2.993.935-4.539 1.383c-1.011.293-5.8-.223-8.617.423a6.366 6.366 0 0 0-3.652 1.872c-.88 1.082-.937 2.927.213 3.717.327.225.771.415.81.81a1.485 1.485 0 0 1-.139.583 1.55 1.55 0 0 0 2.254 1.806 2.617 2.617 0 0 0 2.426 2.5 2.087 2.087 0 0 1 .759-1.88 4.177 4.177 0 0 1 1.982-.407 5.328 5.328 0 0 0 3.193-1.52c.606-.606 1.056-1.35 1.608-2a8.093 8.093 0 0 1 4.445-2.664" class="cls-29" data-name="패스 1397" transform="translate(-303.831 -131.542)"/>
                    <path id="패스_1398" d="M361.611 166.256a2.429 2.429 0 0 0-.37-.55l-13.93 13.624c-3.318 8.835-9.936 32.089-9.936 32.089s-6.27 2.942-10.478 5.125c-1.066.554-4.077 2.58-7.643 5.053-.074 1.062-.139 1.9-.178 2.332-.254 2.884-.648 2.866.092 5.617a55.047 55.047 0 0 1-1.174 7.275c10.466-2.674 32.069-9.445 32.887-9.889 1.225-.667 7.586-26.246 11.268-41.78.568-9.459.216-17.233-.538-18.896z" class="cls-26" data-name="패스 1398" transform="translate(-289.021 -165.696)"/>
                    <path id="패스_1399" d="M355.3 177.848c-1.289 3.688-8.128 36.16-8.128 36.16a62.181 62.181 0 0 0-10.9 3.862c-3.261 1.694-25.995 15.811-25.995 15.811l2.263 5.325s40.466-14.342 42.24-15.3 18.023-41.964 18.021-49.279c0-4.308-3.488-8.723-3.488-8.723" class="cls-27" data-name="패스 1399" transform="translate(-297.086 -165.701)"/>
                </g>
                <path id="패스_1400" d="M302.238 200.693a2.712 2.712 0 0 1-2.9-2.124 2.125 2.125 0 0 0-.2-.761c-.245-.393-.771-.473-1.215-.6a5.181 5.181 0 0 1-3.206-3.954 5.318 5.318 0 0 1-.008-2.8 2.923 2.923 0 0 1 1.876-1.972.883.883 0 0 1 .548-.014.989.989 0 0 1 .415.364 7.031 7.031 0 0 1 1.162 2.328 2.916 2.916 0 0 0 .81 1.675 7.474 7.474 0 0 0 1.178.489 3.352 3.352 0 0 1 1.442 2.05c.434 1.232-.143 4.042.1 5.325" class="cls-29" data-name="패스 1400" transform="translate(-205.703 -89.003)"/>
                <path id="패스_1401" d="M302.842 192.659a3.5 3.5 0 0 0-.874-2.936 6.321 6.321 0 0 0-2.555-1.588c-.252-.094-.591-.153-.741.07a.521.521 0 0 0 .053.54c.36.612 1.119.9 1.506 1.491a6.188 6.188 0 0 1 .35.722 3.145 3.145 0 0 0 2.261 1.7" class="cls-29" data-name="패스 1401" transform="translate(-201.424 -89.391)"/>
                <path id="패스_1402" d="M329.868 186.648s-3.838-9.494-4.529-13.414c-1.835 9.316-1.227 25.629-2.774 27.02s-17 10.2-17 10.2c7.3-2.291 16.212-5.579 18.708-8.6 1.41-1.7 3.515-8 5.591-15.208z" class="cls-26" data-name="패스 1402" transform="translate(-194.154 -104.886)"/>
                <path id="패스_1403" d="M321.977 158.963s6.53 1.424 7.686 1.236-2.51 1.99-3.2 2.07-4.49-.442-4.49-.442z" class="cls-34" data-name="패스 1403" transform="translate(-176.996 -119.81)"/>
            </g>
        </g>
        <path id="패스_1404" d="M84.119 158.939a3.092 3.092 0 1 1-3.091-3.093 3.092 3.092 0 0 1 3.091 3.093z" class="cls-2" data-name="패스 1404" transform="translate(21.083 81.167)"/>
        <g id="그룹_961" data-name="그룹 961" transform="translate(425.757 139.905)">
            <g id="그룹_959" data-name="그룹 959" transform="translate(3.478)">
                <path id="패스_1405" d="M240.338 117.3a.986.986 0 0 1-.984-.986v-6.955a.985.985 0 0 1 1.97 0v6.955a.985.985 0 0 1-.986.986z" class="cls-2" data-name="패스 1405" transform="translate(-239.354 -108.377)"/>
            </g>
            <g id="그룹_960" data-name="그룹 960" transform="translate(0 3.476)">
                <path id="패스_1406" d="M245.6 112.048h-6.96a.986.986 0 0 1 0-1.972h6.96a.986.986 0 1 1 0 1.972z" class="cls-2" data-name="패스 1406" transform="translate(-237.654 -110.076)"/>
            </g>
        </g>
        <g id="그룹_962" data-name="그룹 962" transform="translate(634.002 173.996)">
            <path id="패스_1407" d="M355.587 130.14a8.407 8.407 0 1 1-11.039-4.417 8.407 8.407 0 0 1 11.039 4.417z" class="cls-2" data-name="패스 1407" transform="translate(-339.45 -125.042)"/>
            <path id="패스_1408" d="M341.974 132.9l4.308 1.646 1.713-7.228" class="cls-35" data-name="패스 1408" transform="translate(-336.81 -122.666)"/>
        </g>
        <path id="패스_1409" d="M355.226 230.872a3.092 3.092 0 1 1-3.093-3.091 3.092 3.092 0 0 1 3.093 3.091z" class="cls-2" data-name="패스 1409" transform="translate(304.583 156.39)"/>
        <g id="그룹_965" data-name="그룹 965" transform="translate(106.53 423.48)">
            <g id="그룹_963" data-name="그룹 963" transform="translate(3.478)">
                <path id="패스_1410" d="M84.293 255.923a.987.987 0 0 1-.986-.986v-6.955a.986.986 0 0 1 1.972 0v6.955a.987.987 0 0 1-.986.986z" class="cls-2" data-name="패스 1410" transform="translate(-83.307 -246.996)"/>
            </g>
            <g id="그룹_964" data-name="그룹 964" transform="translate(0 3.478)">
                <path id="패스_1411" d="M89.55 250.668h-6.957a.986.986 0 0 1 0-1.972h6.957a.986.986 0 0 1 0 1.972z" class="cls-2" data-name="패스 1411" transform="translate(-81.607 -248.696)"/>
            </g>
        </g>
    </g>
</svg>
